<?xml version="1.0" encoding="UTF-8"?>
<svg xmlns="http://www.w3.org/2000/svg" xmlns:xlink="http://www.w3.org/1999/xlink" width="360pt" height="360pt" viewBox="0 0 360 360" version="1.1">
<g id="surface7">
<rect x="0" y="0" width="360" height="360" style="fill:rgb(100%,100%,100%);fill-opacity:1;stroke:none;"/>
<path style="fill-rule:nonzero;fill:rgb(0%,69.019608%,96.470588%);fill-opacity:1;stroke-width:1.062992;stroke-linecap:round;stroke-linejoin:round;stroke:rgb(100%,100%,100%);stroke-opacity:1;stroke-miterlimit:10;" d="M 183.542969 176.457031 L 187.609375 174.597656 L 195.742188 170.886719 L 199.808594 169.027344 L 203.875 167.171875 L 207.941406 165.3125 L 216.074219 161.601562 L 220.140625 159.742188 L 224.207031 157.886719 L 228.273438 156.027344 L 232.339844 154.171875 L 236.410156 152.3125 L 244.542969 148.601562 L 248.609375 146.742188 L 252.675781 144.886719 L 256.742188 143.027344 L 260.808594 141.171875 L 264.875 139.3125 L 273.007812 135.601562 L 277.074219 133.742188 L 281.140625 131.886719 L 285.207031 130.027344 L 289.273438 128.171875 L 293.339844 126.3125 L 301.472656 122.601562 L 299.539062 118.550781 L 297.464844 114.570312 L 295.253906 110.664062 L 292.910156 106.835938 L 290.433594 103.09375 L 287.832031 99.4375 L 285.105469 95.875 L 282.253906 92.40625 L 279.285156 89.042969 L 276.203125 85.78125 L 273.007812 82.628906 L 269.707031 79.585938 L 266.304688 76.664062 L 262.800781 73.859375 L 259.203125 71.175781 L 255.511719 68.621094 L 251.738281 66.195312 L 247.878906 63.902344 L 243.945312 61.742188 L 239.9375 59.71875 L 235.863281 57.839844 L 231.726562 56.097656 L 227.53125 54.503906 L 223.285156 53.054688 L 218.992188 51.75 L 214.652344 50.597656 L 210.277344 49.597656 L 205.871094 48.75 L 201.4375 48.050781 L 196.984375 47.511719 L 192.511719 47.121094 L 188.03125 46.890625 L 183.542969 46.8125 Z M 183.542969 176.457031 "/>
<path style="fill-rule:nonzero;fill:rgb(90.588235%,41.960784%,95.294118%);fill-opacity:1;stroke-width:1.062992;stroke-linecap:round;stroke-linejoin:round;stroke:rgb(100%,100%,100%);stroke-opacity:1;stroke-miterlimit:10;" d="M 183.542969 176.457031 L 182.285156 180.746094 L 181.023438 185.035156 L 179.765625 189.324219 L 178.503906 193.613281 L 175.988281 202.191406 L 174.726562 206.484375 L 173.46875 210.773438 L 172.207031 215.0625 L 170.949219 219.351562 L 169.6875 223.640625 L 168.429688 227.929688 L 167.167969 232.21875 L 164.652344 240.796875 L 163.390625 245.085938 L 162.132812 249.378906 L 160.871094 253.667969 L 159.613281 257.957031 L 158.351562 262.246094 L 155.835938 270.824219 L 154.574219 275.113281 L 153.316406 279.402344 L 152.054688 283.691406 L 150.796875 287.980469 L 149.535156 292.273438 L 147.019531 300.851562 L 151.28125 302.023438 L 155.582031 303.050781 L 159.914062 303.929688 L 164.273438 304.660156 L 168.65625 305.246094 L 173.054688 305.675781 L 177.464844 305.960938 L 181.886719 306.089844 L 186.304688 306.074219 L 190.722656 305.902344 L 195.132812 305.582031 L 199.527344 305.113281 L 203.90625 304.492188 L 208.257812 303.722656 L 212.585938 302.808594 L 216.875 301.742188 L 221.128906 300.535156 L 225.335938 299.179688 L 229.496094 297.683594 L 233.601562 296.046875 L 237.652344 294.269531 L 241.636719 292.359375 L 245.554688 290.308594 L 249.398438 288.128906 L 253.167969 285.820312 L 256.859375 283.382812 L 260.460938 280.820312 L 263.972656 278.136719 L 267.394531 275.335938 L 270.714844 272.417969 L 273.9375 269.390625 L 277.054688 266.253906 L 280.0625 263.015625 L 282.957031 259.671875 L 285.734375 256.234375 L 288.394531 252.703125 L 290.933594 249.085938 L 293.347656 245.382812 L 295.636719 241.597656 L 297.789062 237.738281 L 299.8125 233.808594 L 301.703125 229.808594 L 303.453125 225.75 L 305.0625 221.632812 L 306.53125 217.464844 L 307.859375 213.246094 L 309.042969 208.988281 L 310.078125 204.6875 L 310.964844 200.359375 L 311.707031 196 L 312.300781 191.621094 L 312.742188 187.21875 L 313.03125 182.808594 L 313.175781 178.390625 L 313.164062 173.96875 L 313.003906 169.550781 L 312.695312 165.140625 L 312.234375 160.746094 L 311.621094 156.367188 L 310.863281 152.011719 L 309.957031 147.683594 L 308.902344 143.390625 L 307.699219 139.136719 L 306.355469 134.925781 L 304.867188 130.761719 L 303.242188 126.652344 L 301.472656 122.601562 L 293.339844 126.3125 L 289.273438 128.171875 L 285.207031 130.027344 L 281.140625 131.886719 L 277.074219 133.742188 L 273.007812 135.601562 L 264.875 139.3125 L 260.808594 141.171875 L 256.742188 143.027344 L 252.675781 144.886719 L 248.609375 146.742188 L 244.542969 148.601562 L 236.410156 152.3125 L 232.339844 154.171875 L 228.273438 156.027344 L 224.207031 157.886719 L 220.140625 159.742188 L 216.074219 161.601562 L 207.941406 165.3125 L 203.875 167.171875 L 199.808594 169.027344 L 195.742188 170.886719 L 187.609375 174.597656 Z M 183.542969 176.457031 "/>
<path style="fill-rule:nonzero;fill:rgb(97.254902%,46.27451%,42.745098%);fill-opacity:1;stroke-width:1.062992;stroke-linecap:round;stroke-linejoin:round;stroke:rgb(100%,100%,100%);stroke-opacity:1;stroke-miterlimit:10;" d="M 183.542969 176.457031 L 180.164062 179.382812 L 176.785156 182.3125 L 173.40625 185.238281 L 170.027344 188.167969 L 166.648438 191.09375 L 163.273438 194.023438 L 159.894531 196.949219 L 156.515625 199.878906 L 153.136719 202.804688 L 149.757812 205.734375 L 143 211.585938 L 139.621094 214.515625 L 136.242188 217.441406 L 132.863281 220.371094 L 129.484375 223.296875 L 126.105469 226.226562 L 122.726562 229.152344 L 119.351562 232.082031 L 115.972656 235.007812 L 112.59375 237.9375 L 105.835938 243.789062 L 102.457031 246.71875 L 99.078125 249.644531 L 95.699219 252.574219 L 92.320312 255.5 L 88.941406 258.429688 L 85.5625 261.355469 L 88.65625 264.800781 L 91.871094 268.128906 L 95.199219 271.34375 L 98.644531 274.4375 L 102.195312 277.402344 L 105.851562 280.242188 L 109.605469 282.949219 L 113.453125 285.519531 L 117.390625 287.953125 L 121.410156 290.242188 L 125.511719 292.390625 L 129.6875 294.386719 L 133.929688 296.234375 L 138.238281 297.929688 L 142.601562 299.46875 L 147.019531 300.851562 L 149.535156 292.273438 L 150.796875 287.980469 L 152.054688 283.691406 L 153.316406 279.402344 L 154.574219 275.113281 L 155.835938 270.824219 L 158.351562 262.246094 L 159.613281 257.957031 L 160.871094 253.667969 L 162.132812 249.378906 L 163.390625 245.085938 L 164.652344 240.796875 L 167.167969 232.21875 L 168.429688 227.929688 L 169.6875 223.640625 L 170.949219 219.351562 L 172.207031 215.0625 L 173.46875 210.773438 L 174.726562 206.484375 L 175.988281 202.191406 L 178.503906 193.613281 L 179.765625 189.324219 L 181.023438 185.035156 L 182.285156 180.746094 Z M 183.542969 176.457031 "/>
<path style="fill-rule:nonzero;fill:rgb(0%,74.901961%,49.019608%);fill-opacity:1;stroke-width:1.062992;stroke-linecap:round;stroke-linejoin:round;stroke:rgb(100%,100%,100%);stroke-opacity:1;stroke-miterlimit:10;" d="M 183.542969 176.457031 L 179.476562 174.597656 L 171.34375 170.886719 L 167.277344 169.027344 L 163.210938 167.171875 L 159.144531 165.3125 L 151.011719 161.601562 L 146.945312 159.742188 L 142.878906 157.886719 L 138.8125 156.027344 L 134.746094 154.171875 L 130.679688 152.3125 L 122.546875 148.601562 L 118.480469 146.742188 L 114.414062 144.886719 L 110.34375 143.027344 L 106.277344 141.171875 L 102.210938 139.3125 L 94.078125 135.601562 L 90.011719 133.742188 L 85.945312 131.886719 L 81.878906 130.027344 L 77.8125 128.171875 L 73.746094 126.3125 L 65.613281 122.601562 L 63.820312 126.714844 L 62.171875 130.886719 L 60.664062 135.117188 L 59.308594 139.394531 L 58.101562 143.714844 L 57.042969 148.078125 L 56.136719 152.472656 L 55.382812 156.894531 L 54.78125 161.34375 L 54.335938 165.808594 L 54.042969 170.289062 L 53.910156 174.773438 L 53.929688 179.261719 L 54.101562 183.746094 L 54.433594 188.222656 L 54.917969 192.683594 L 55.554688 197.125 L 56.347656 201.542969 L 57.292969 205.929688 L 58.386719 210.28125 L 59.632812 214.59375 L 61.027344 218.859375 L 62.570312 223.074219 L 64.253906 227.234375 L 66.085938 231.332031 L 68.054688 235.363281 L 70.160156 239.328125 L 72.40625 243.214844 L 74.78125 247.019531 L 77.289062 250.742188 L 79.925781 254.375 L 82.683594 257.914062 L 85.5625 261.355469 L 88.941406 258.429688 L 92.320312 255.5 L 95.699219 252.574219 L 99.078125 249.644531 L 102.457031 246.71875 L 105.835938 243.789062 L 112.59375 237.9375 L 115.972656 235.007812 L 119.351562 232.082031 L 122.726562 229.152344 L 126.105469 226.226562 L 129.484375 223.296875 L 132.863281 220.371094 L 136.242188 217.441406 L 139.621094 214.515625 L 143 211.585938 L 149.757812 205.734375 L 153.136719 202.804688 L 156.515625 199.878906 L 159.894531 196.949219 L 163.273438 194.023438 L 166.648438 191.09375 L 170.027344 188.167969 L 173.40625 185.238281 L 176.785156 182.3125 L 180.164062 179.382812 Z M 183.542969 176.457031 "/>
<path style="fill-rule:nonzero;fill:rgb(63.921569%,64.705882%,0%);fill-opacity:1;stroke-width:1.062992;stroke-linecap:round;stroke-linejoin:round;stroke:rgb(100%,100%,100%);stroke-opacity:1;stroke-miterlimit:10;" d="M 183.542969 176.457031 L 183.542969 46.8125 L 179.054688 46.890625 L 174.574219 47.121094 L 170.101562 47.511719 L 165.648438 48.050781 L 161.214844 48.75 L 156.808594 49.597656 L 152.433594 50.597656 L 148.097656 51.75 L 143.800781 53.054688 L 139.554688 54.503906 L 135.359375 56.097656 L 131.222656 57.839844 L 127.148438 59.71875 L 123.140625 61.742188 L 119.207031 63.902344 L 115.351562 66.195312 L 111.574219 68.621094 L 107.886719 71.175781 L 104.285156 73.859375 L 100.785156 76.664062 L 97.378906 79.585938 L 94.078125 82.628906 L 90.882812 85.78125 L 87.800781 89.042969 L 84.832031 92.40625 L 81.984375 95.875 L 79.253906 99.4375 L 76.652344 103.09375 L 74.175781 106.835938 L 71.832031 110.664062 L 69.621094 114.570312 L 67.546875 118.550781 L 65.613281 122.601562 L 73.746094 126.3125 L 77.8125 128.171875 L 81.878906 130.027344 L 85.945312 131.886719 L 90.011719 133.742188 L 94.078125 135.601562 L 102.210938 139.3125 L 106.277344 141.171875 L 110.34375 143.027344 L 114.414062 144.886719 L 118.480469 146.742188 L 122.546875 148.601562 L 130.679688 152.3125 L 134.746094 154.171875 L 138.8125 156.027344 L 142.878906 157.886719 L 146.945312 159.742188 L 151.011719 161.601562 L 159.144531 165.3125 L 163.210938 167.171875 L 167.277344 169.027344 L 171.34375 170.886719 L 179.476562 174.597656 Z M 183.542969 176.457031 "/>
</g>
</svg>
