<?xml version="1.0" encoding="UTF-8"?>
<svg xmlns="http://www.w3.org/2000/svg" xmlns:xlink="http://www.w3.org/1999/xlink" width="360pt" height="360pt" viewBox="0 0 360 360" version="1.1">
<g id="surface4">
<rect x="0" y="0" width="360" height="360" style="fill:rgb(100%,100%,100%);fill-opacity:1;stroke:none;"/>
<path style="fill-rule:nonzero;fill:rgb(0%,69.019608%,96.470588%);fill-opacity:1;stroke-width:1.066978;stroke-linecap:round;stroke-linejoin:round;stroke:rgb(100%,100%,100%);stroke-opacity:1;stroke-miterlimit:10;" d="M 181.496094 178.503906 L 186.207031 179.183594 L 190.917969 179.859375 L 195.628906 180.539062 L 205.050781 181.890625 L 209.761719 182.570312 L 214.472656 183.246094 L 219.183594 183.925781 L 228.605469 185.277344 L 233.316406 185.957031 L 238.027344 186.632812 L 242.738281 187.3125 L 252.160156 188.664062 L 256.871094 189.34375 L 261.582031 190.019531 L 266.292969 190.699219 L 275.714844 192.050781 L 280.425781 192.730469 L 285.136719 193.40625 L 289.847656 194.085938 L 299.269531 195.4375 L 303.980469 196.117188 L 308.691406 196.792969 L 313.402344 197.472656 L 318.113281 198.148438 L 318.703125 193.457031 L 319.136719 188.746094 L 319.40625 184.023438 L 319.515625 179.292969 L 319.460938 174.5625 L 319.246094 169.839844 L 318.867188 165.125 L 318.328125 160.425781 L 317.628906 155.746094 L 316.769531 151.09375 L 315.75 146.476562 L 314.574219 141.894531 L 313.238281 137.355469 L 311.753906 132.867188 L 310.113281 128.429688 L 308.320312 124.050781 L 306.378906 119.738281 L 304.292969 115.492188 L 302.0625 111.324219 L 299.691406 107.230469 L 297.179688 103.222656 L 294.53125 99.304688 L 291.75 95.476562 L 288.839844 91.746094 L 285.804688 88.121094 L 282.644531 84.597656 L 279.371094 81.1875 L 275.976562 77.890625 L 272.472656 74.714844 L 268.863281 71.65625 L 265.152344 68.726562 L 261.339844 65.921875 L 257.4375 63.253906 L 253.441406 60.71875 L 249.363281 58.324219 L 245.207031 56.066406 L 240.972656 53.957031 L 236.671875 51.992188 L 232.304688 50.175781 L 227.875 48.511719 L 223.394531 46.996094 L 218.863281 45.636719 L 214.289062 44.4375 L 209.675781 43.390625 L 205.03125 42.503906 L 200.355469 41.777344 L 195.660156 41.210938 L 190.949219 40.808594 L 186.222656 40.5625 L 181.496094 40.484375 Z M 181.496094 178.503906 "/>
<path style="fill-rule:nonzero;fill:rgb(90.588235%,41.960784%,95.294118%);fill-opacity:1;stroke-width:1.066978;stroke-linecap:round;stroke-linejoin:round;stroke:rgb(100%,100%,100%);stroke-opacity:1;stroke-miterlimit:10;" d="M 181.496094 178.503906 L 167.105469 190.972656 L 163.511719 194.089844 L 152.71875 203.441406 L 149.121094 206.554688 L 145.523438 209.671875 L 141.929688 212.789062 L 127.539062 225.257812 L 123.945312 228.375 L 120.347656 231.488281 L 109.554688 240.839844 L 105.960938 243.957031 L 91.570312 256.425781 L 87.976562 259.539062 L 77.183594 268.890625 L 80.328125 272.394531 L 83.585938 275.789062 L 86.960938 279.070312 L 90.445312 282.234375 L 94.035156 285.28125 L 97.726562 288.199219 L 101.511719 290.992188 L 105.394531 293.652344 L 109.367188 296.179688 L 113.417969 298.570312 L 117.550781 300.824219 L 121.761719 302.933594 L 126.039062 304.898438 L 130.378906 306.714844 L 134.78125 308.382812 L 139.234375 309.898438 L 143.738281 311.265625 L 148.289062 312.472656 L 152.875 313.527344 L 157.496094 314.425781 L 162.144531 315.164062 L 166.8125 315.746094 L 171.5 316.164062 L 176.199219 316.425781 L 180.90625 316.527344 L 185.613281 316.464844 L 190.3125 316.246094 L 195.003906 315.863281 L 199.679688 315.324219 L 204.335938 314.625 L 208.960938 313.765625 L 213.558594 312.753906 L 218.117188 311.582031 L 222.632812 310.253906 L 227.101562 308.777344 L 231.515625 307.144531 L 235.871094 305.363281 L 240.164062 303.4375 L 244.390625 301.363281 L 248.542969 299.148438 L 252.617188 296.792969 L 256.609375 294.296875 L 260.511719 291.671875 L 264.324219 288.910156 L 268.042969 286.023438 L 271.65625 283.007812 L 275.167969 279.875 L 278.570312 276.621094 L 281.859375 273.253906 L 285.03125 269.777344 L 288.082031 266.195312 L 291.011719 262.507812 L 293.808594 258.726562 L 296.480469 254.851562 L 299.015625 250.886719 L 301.414062 246.835938 L 303.675781 242.707031 L 305.792969 238.503906 L 307.765625 234.230469 L 309.59375 229.894531 L 311.269531 225.496094 L 312.796875 221.046875 L 314.171875 216.542969 L 315.390625 211.996094 L 316.457031 207.414062 L 317.363281 202.792969 L 318.113281 198.148438 L 313.402344 197.472656 L 308.691406 196.792969 L 303.980469 196.117188 L 299.269531 195.4375 L 289.847656 194.085938 L 285.136719 193.40625 L 280.425781 192.730469 L 275.714844 192.050781 L 266.292969 190.699219 L 261.582031 190.019531 L 256.871094 189.34375 L 252.160156 188.664062 L 242.738281 187.3125 L 238.027344 186.632812 L 233.316406 185.957031 L 228.605469 185.277344 L 219.183594 183.925781 L 214.472656 183.246094 L 209.761719 182.570312 L 205.050781 181.890625 L 195.628906 180.539062 L 190.917969 179.859375 L 186.207031 179.183594 Z M 181.496094 178.503906 "/>
<path style="fill-rule:nonzero;fill:rgb(97.254902%,46.27451%,42.745098%);fill-opacity:1;stroke-width:1.066978;stroke-linecap:round;stroke-linejoin:round;stroke:rgb(100%,100%,100%);stroke-opacity:1;stroke-miterlimit:10;" d="M 181.496094 178.503906 L 176.785156 179.183594 L 172.074219 179.859375 L 167.363281 180.539062 L 157.941406 181.890625 L 153.230469 182.570312 L 148.519531 183.246094 L 143.808594 183.925781 L 134.386719 185.277344 L 129.675781 185.957031 L 124.964844 186.632812 L 120.253906 187.3125 L 110.832031 188.664062 L 106.121094 189.34375 L 101.410156 190.019531 L 96.699219 190.699219 L 87.277344 192.050781 L 82.5625 192.730469 L 77.851562 193.40625 L 73.140625 194.085938 L 63.71875 195.4375 L 59.007812 196.117188 L 54.296875 196.792969 L 49.585938 197.472656 L 44.875 198.148438 L 45.664062 203.011719 L 46.625 207.84375 L 47.757812 212.640625 L 49.0625 217.390625 L 50.535156 222.09375 L 52.175781 226.738281 L 53.976562 231.324219 L 55.945312 235.84375 L 58.070312 240.285156 L 60.355469 244.652344 L 62.792969 248.933594 L 65.382812 253.125 L 68.121094 257.222656 L 71 261.21875 L 74.023438 265.109375 L 77.183594 268.890625 L 87.976562 259.539062 L 91.570312 256.425781 L 105.960938 243.957031 L 109.554688 240.839844 L 120.347656 231.488281 L 123.945312 228.375 L 127.539062 225.257812 L 141.929688 212.789062 L 145.523438 209.671875 L 149.121094 206.554688 L 152.71875 203.441406 L 163.511719 194.089844 L 167.105469 190.972656 Z M 181.496094 178.503906 "/>
<path style="fill-rule:nonzero;fill:rgb(0%,74.901961%,49.019608%);fill-opacity:1;stroke-width:1.066978;stroke-linecap:round;stroke-linejoin:round;stroke:rgb(100%,100%,100%);stroke-opacity:1;stroke-miterlimit:10;" d="M 181.496094 178.503906 L 177.898438 175.390625 L 167.105469 166.039062 L 163.511719 162.921875 L 149.121094 150.453125 L 145.523438 147.339844 L 141.929688 144.222656 L 127.539062 131.753906 L 123.945312 128.636719 L 116.75 122.402344 L 113.152344 119.289062 L 109.554688 116.171875 L 105.960938 113.054688 L 91.570312 100.585938 L 87.976562 97.46875 L 84.378906 94.355469 L 77.183594 88.121094 L 74.148438 91.746094 L 71.238281 95.476562 L 68.457031 99.304688 L 65.8125 103.222656 L 63.300781 107.230469 L 60.925781 111.324219 L 58.695312 115.492188 L 56.609375 119.738281 L 54.667969 124.050781 L 52.875 128.429688 L 51.234375 132.867188 L 49.75 137.355469 L 48.414062 141.894531 L 47.238281 146.476562 L 46.222656 151.09375 L 45.359375 155.746094 L 44.660156 160.425781 L 44.121094 165.125 L 43.746094 169.839844 L 43.527344 174.5625 L 43.472656 179.292969 L 43.582031 184.023438 L 43.851562 188.746094 L 44.285156 193.457031 L 44.875 198.148438 L 49.585938 197.472656 L 54.296875 196.792969 L 59.007812 196.117188 L 63.71875 195.4375 L 73.140625 194.085938 L 77.851562 193.40625 L 82.5625 192.730469 L 87.277344 192.050781 L 96.699219 190.699219 L 101.410156 190.019531 L 106.121094 189.34375 L 110.832031 188.664062 L 120.253906 187.3125 L 124.964844 186.632812 L 129.675781 185.957031 L 134.386719 185.277344 L 143.808594 183.925781 L 148.519531 183.246094 L 153.230469 182.570312 L 157.941406 181.890625 L 167.363281 180.539062 L 172.074219 179.859375 L 176.785156 179.183594 Z M 181.496094 178.503906 "/>
<path style="fill-rule:nonzero;fill:rgb(63.921569%,64.705882%,0%);fill-opacity:1;stroke-width:1.066978;stroke-linecap:round;stroke-linejoin:round;stroke:rgb(100%,100%,100%);stroke-opacity:1;stroke-miterlimit:10;" d="M 181.496094 178.503906 L 181.496094 40.484375 L 176.765625 40.5625 L 172.042969 40.808594 L 167.328125 41.210938 L 162.632812 41.777344 L 157.957031 42.503906 L 153.3125 43.390625 L 148.699219 44.4375 L 144.125 45.636719 L 139.59375 46.996094 L 135.113281 48.511719 L 130.683594 50.175781 L 126.316406 51.992188 L 122.015625 53.957031 L 117.78125 56.066406 L 113.625 58.324219 L 109.546875 60.71875 L 105.550781 63.253906 L 101.648438 65.921875 L 97.835938 68.726562 L 94.125 71.65625 L 90.515625 74.714844 L 87.011719 77.890625 L 83.621094 81.1875 L 80.34375 84.597656 L 77.183594 88.121094 L 84.378906 94.355469 L 87.976562 97.46875 L 91.570312 100.585938 L 105.960938 113.054688 L 109.554688 116.171875 L 113.152344 119.289062 L 116.75 122.402344 L 123.945312 128.636719 L 127.539062 131.753906 L 141.929688 144.222656 L 145.523438 147.339844 L 149.121094 150.453125 L 163.511719 162.921875 L 167.105469 166.039062 L 177.898438 175.390625 Z M 181.496094 178.503906 "/>
</g>
</svg>
