<?xml version="1.0" encoding="UTF-8" standalone="no"?>
<svg
   xmlns:dc="http://purl.org/dc/elements/1.1/"
   xmlns:cc="http://creativecommons.org/ns#"
   xmlns:rdf="http://www.w3.org/1999/02/22-rdf-syntax-ns#"
   xmlns:svg="http://www.w3.org/2000/svg"
   xmlns="http://www.w3.org/2000/svg"
   xmlns:sodipodi="http://sodipodi.sourceforge.net/DTD/sodipodi-0.dtd"
   xmlns:inkscape="http://www.inkscape.org/namespaces/inkscape"
   width="360pt"
   height="360pt"
   viewBox="0 0 360 360"
   version="1.1"
   id="svg3183"
   inkscape:version="0.48.4 r9939"
   sodipodi:docname="piePersonnal.svg">
  <metadata
     id="metadata3202">
    <rdf:RDF>
      <cc:Work
         rdf:about="">
        <dc:format>image/svg+xml</dc:format>
        <dc:type
           rdf:resource="http://purl.org/dc/dcmitype/StillImage" />
        <dc:title></dc:title>
      </cc:Work>
    </rdf:RDF>
  </metadata>
  <defs
     id="defs3200" />
  <sodipodi:namedview
     pagecolor="#ffffff"
     bordercolor="#666666"
     borderopacity="1"
     objecttolerance="10"
     gridtolerance="10"
     guidetolerance="10"
     inkscape:pageopacity="0"
     inkscape:pageshadow="2"
     inkscape:window-width="1855"
     inkscape:window-height="1056"
     id="namedview3198"
     showgrid="false"
     inkscape:zoom="1.0488889"
     inkscape:cx="261.00123"
     inkscape:cy="273.35877"
     inkscape:window-x="1745"
     inkscape:window-y="24"
     inkscape:window-maximized="1"
     inkscape:current-layer="svg3183" />
  <g
     id="surface22">
    <rect
       x="0"
       y="0"
       width="360"
       height="360"
       style="fill:rgb(100%,100%,100%);fill-opacity:1;stroke:none;"
       id="rect3186" />
    <path
       style="fill-rule:nonzero;fill:rgb(63.921569%,64.705882%,0%);fill-opacity:1;stroke-width:1.062992;stroke-linecap:round;stroke-linejoin:round;stroke:rgb(100%,100%,100%);stroke-opacity:1;stroke-miterlimit:10;"
       d="M 183.542969 176.457031 L 187.796875 175.074219 L 192.046875 173.695312 L 196.296875 172.3125 L 200.550781 170.929688 L 204.800781 169.550781 L 209.054688 168.167969 L 213.304688 166.785156 L 217.558594 165.40625 L 221.808594 164.023438 L 226.0625 162.640625 L 230.3125 161.261719 L 234.5625 159.878906 L 238.816406 158.496094 L 243.066406 157.117188 L 247.320312 155.734375 L 251.570312 154.351562 L 255.824219 152.972656 L 264.324219 150.207031 L 268.578125 148.828125 L 272.828125 147.445312 L 277.082031 146.0625 L 281.332031 144.683594 L 285.585938 143.300781 L 289.835938 141.921875 L 294.089844 140.539062 L 298.339844 139.15625 L 302.589844 137.777344 L 306.84375 136.394531 L 305.410156 132.230469 L 303.839844 128.117188 L 302.128906 124.0625 L 300.28125 120.0625 L 298.300781 116.132812 L 296.183594 112.269531 L 293.941406 108.484375 L 291.566406 104.773438 L 289.070312 101.144531 L 286.453125 97.605469 L 283.71875 94.15625 L 280.863281 90.804688 L 277.898438 87.546875 L 274.828125 84.394531 L 271.648438 81.347656 L 268.367188 78.410156 L 264.988281 75.589844 L 261.515625 72.878906 L 257.953125 70.292969 L 254.308594 67.828125 L 250.578125 65.488281 L 246.769531 63.273438 L 242.890625 61.191406 L 238.941406 59.242188 L 234.929688 57.429688 L 230.859375 55.753906 L 226.734375 54.21875 L 222.558594 52.820312 L 218.335938 51.566406 L 214.074219 50.457031 L 209.78125 49.492188 L 205.453125 48.675781 L 201.101562 48.007812 L 196.730469 47.484375 L 192.34375 47.109375 L 187.945312 46.886719 L 183.542969 46.8125 Z M 183.542969 176.457031 "
       id="path3188" />
    <path
       style="fill-rule:nonzero;fill:rgb(97.254902%,46.27451%,42.745098%);fill-opacity:1;stroke-width:1.062992;stroke-linecap:round;stroke-linejoin:round;stroke:rgb(100%,100%,100%);stroke-opacity:1;stroke-miterlimit:10;"
       d="M 183.542969 176.457031 L 186.171875 180.074219 L 188.796875 183.691406 L 191.425781 187.308594 L 194.054688 190.921875 L 196.683594 194.539062 L 199.308594 198.15625 L 204.566406 205.390625 L 207.191406 209.007812 L 212.449219 216.242188 L 215.074219 219.859375 L 217.703125 223.472656 L 220.332031 227.089844 L 222.957031 230.707031 L 230.84375 241.558594 L 233.46875 245.175781 L 236.097656 248.792969 L 238.726562 252.40625 L 241.351562 256.023438 L 246.609375 263.257812 L 249.234375 266.875 L 257.121094 277.726562 L 259.746094 281.34375 L 263.265625 278.695312 L 266.691406 275.929688 L 270.019531 273.046875 L 273.25 270.054688 L 276.375 266.953125 L 279.394531 263.75 L 282.304688 260.445312 L 285.101562 257.042969 L 287.777344 253.546875 L 290.335938 249.964844 L 292.769531 246.296875 L 295.078125 242.546875 L 297.257812 238.722656 L 299.308594 234.824219 L 301.222656 230.859375 L 303 226.832031 L 304.644531 222.746094 L 306.144531 218.605469 L 307.507812 214.417969 L 308.722656 210.1875 L 309.796875 205.917969 L 310.722656 201.613281 L 311.503906 197.28125 L 312.136719 192.925781 L 312.625 188.546875 L 312.960938 184.15625 L 313.148438 179.757812 L 313.183594 175.355469 L 313.070312 170.953125 L 312.808594 166.558594 L 312.398438 162.175781 L 311.839844 157.808594 L 311.132812 153.460938 L 310.277344 149.144531 L 309.277344 144.855469 L 308.132812 140.605469 L 306.84375 136.394531 L 302.589844 137.777344 L 298.339844 139.15625 L 294.089844 140.539062 L 289.835938 141.921875 L 285.585938 143.300781 L 281.332031 144.683594 L 277.082031 146.0625 L 272.828125 147.445312 L 268.578125 148.828125 L 264.324219 150.207031 L 255.824219 152.972656 L 251.570312 154.351562 L 247.320312 155.734375 L 243.066406 157.117188 L 238.816406 158.496094 L 234.5625 159.878906 L 230.3125 161.261719 L 226.0625 162.640625 L 221.808594 164.023438 L 217.558594 165.40625 L 213.304688 166.785156 L 209.054688 168.167969 L 204.800781 169.550781 L 200.550781 170.929688 L 196.296875 172.3125 L 192.046875 173.695312 L 187.796875 175.074219 Z M 183.542969 176.457031 "
       id="path3190" />
    <path
       style="fill-rule:nonzero;fill:rgb(0%,74.901961%,49.019608%);fill-opacity:1;stroke-width:1.062992;stroke-linecap:round;stroke-linejoin:round;stroke:rgb(100%,100%,100%);stroke-opacity:1;stroke-miterlimit:10;"
       d="M 183.542969 176.457031 L 180.914062 180.074219 L 178.289062 183.691406 L 175.660156 187.308594 L 173.03125 190.921875 L 170.40625 194.539062 L 165.148438 201.773438 L 162.523438 205.390625 L 154.636719 216.242188 L 152.011719 219.859375 L 149.382812 223.472656 L 146.753906 227.089844 L 144.128906 230.707031 L 138.871094 237.941406 L 136.246094 241.558594 L 130.988281 248.792969 L 128.363281 252.40625 L 120.476562 263.257812 L 117.851562 266.875 L 112.59375 274.109375 L 109.96875 277.726562 L 107.339844 281.34375 L 110.945312 283.867188 L 114.632812 286.273438 L 118.402344 288.550781 L 122.246094 290.695312 L 126.160156 292.710938 L 130.140625 294.59375 L 134.183594 296.339844 L 138.285156 297.945312 L 142.433594 299.414062 L 146.632812 300.738281 L 150.875 301.917969 L 155.15625 302.957031 L 159.464844 303.847656 L 163.804688 304.589844 L 168.167969 305.1875 L 172.546875 305.636719 L 176.941406 305.933594 L 181.34375 306.082031 L 185.746094 306.082031 L 190.144531 305.933594 L 194.539062 305.636719 L 198.917969 305.1875 L 203.28125 304.589844 L 207.621094 303.847656 L 211.933594 302.957031 L 216.210938 301.917969 L 220.453125 300.738281 L 224.652344 299.414062 L 228.804688 297.945312 L 232.902344 296.339844 L 236.945312 294.59375 L 240.925781 292.710938 L 244.839844 290.695312 L 248.683594 288.550781 L 252.453125 286.273438 L 256.140625 283.867188 L 259.746094 281.34375 L 257.121094 277.726562 L 249.234375 266.875 L 246.609375 263.257812 L 241.351562 256.023438 L 238.726562 252.40625 L 236.097656 248.792969 L 233.46875 245.175781 L 230.84375 241.558594 L 222.957031 230.707031 L 220.332031 227.089844 L 217.703125 223.472656 L 215.074219 219.859375 L 212.449219 216.242188 L 207.191406 209.007812 L 204.566406 205.390625 L 199.308594 198.15625 L 196.683594 194.539062 L 194.054688 190.921875 L 191.425781 187.308594 L 188.796875 183.691406 L 186.171875 180.074219 Z M 183.542969 176.457031 "
       id="path3192" />
    <path
       style="fill-rule:nonzero;fill:rgb(0%,69.019608%,96.470588%);fill-opacity:1;stroke-width:1.062992;stroke-linecap:round;stroke-linejoin:round;stroke:rgb(100%,100%,100%);stroke-opacity:1;stroke-miterlimit:10;"
       d="M 183.542969 176.457031 L 179.292969 175.074219 L 175.039062 173.695312 L 170.789062 172.3125 L 166.535156 170.929688 L 162.285156 169.550781 L 158.03125 168.167969 L 153.78125 166.785156 L 149.53125 165.40625 L 145.277344 164.023438 L 141.027344 162.640625 L 136.773438 161.261719 L 132.523438 159.878906 L 128.269531 158.496094 L 124.019531 157.117188 L 119.765625 155.734375 L 115.515625 154.351562 L 111.265625 152.972656 L 107.011719 151.589844 L 102.761719 150.207031 L 98.507812 148.828125 L 94.257812 147.445312 L 90.003906 146.0625 L 85.753906 144.683594 L 81.5 143.300781 L 77.25 141.921875 L 73 140.539062 L 68.746094 139.15625 L 64.496094 137.777344 L 60.242188 136.394531 L 58.953125 140.605469 L 57.808594 144.855469 L 56.808594 149.144531 L 55.953125 153.460938 L 55.246094 157.808594 L 54.6875 162.175781 L 54.277344 166.558594 L 54.015625 170.953125 L 53.902344 175.355469 L 53.941406 179.757812 L 54.125 184.15625 L 54.464844 188.546875 L 54.949219 192.925781 L 55.582031 197.28125 L 56.363281 201.613281 L 57.289062 205.917969 L 58.363281 210.1875 L 59.582031 214.417969 L 60.941406 218.605469 L 62.441406 222.746094 L 64.085938 226.832031 L 65.863281 230.859375 L 67.78125 234.824219 L 69.828125 238.722656 L 72.007812 242.546875 L 74.316406 246.296875 L 76.75 249.964844 L 79.308594 253.546875 L 81.988281 257.042969 L 84.78125 260.445312 L 87.691406 263.75 L 90.710938 266.953125 L 93.835938 270.054688 L 97.066406 273.046875 L 100.394531 275.929688 L 103.820312 278.695312 L 107.339844 281.34375 L 109.96875 277.726562 L 112.59375 274.109375 L 117.851562 266.875 L 120.476562 263.257812 L 128.363281 252.40625 L 130.988281 248.792969 L 136.246094 241.558594 L 138.871094 237.941406 L 144.128906 230.707031 L 146.753906 227.089844 L 149.382812 223.472656 L 152.011719 219.859375 L 154.636719 216.242188 L 162.523438 205.390625 L 165.148438 201.773438 L 170.40625 194.539062 L 173.03125 190.921875 L 175.660156 187.308594 L 178.289062 183.691406 L 180.914062 180.074219 Z M 183.542969 176.457031 "
       id="path3194" />
    <path
       style="fill-rule:nonzero;fill:rgb(90.588235%,41.960784%,95.294118%);fill-opacity:1;stroke-width:1.062992;stroke-linecap:round;stroke-linejoin:round;stroke:rgb(100%,100%,100%);stroke-opacity:1;stroke-miterlimit:10;"
       d="M 183.542969 176.457031 L 183.542969 46.8125 L 179.140625 46.886719 L 174.742188 47.109375 L 170.355469 47.484375 L 165.984375 48.007812 L 161.632812 48.675781 L 157.308594 49.492188 L 153.011719 50.457031 L 148.75 51.566406 L 144.527344 52.820312 L 140.351562 54.21875 L 136.226562 55.753906 L 132.15625 57.429688 L 128.144531 59.242188 L 124.195312 61.191406 L 120.316406 63.273438 L 116.507812 65.488281 L 112.78125 67.828125 L 109.132812 70.292969 L 105.570312 72.878906 L 102.097656 75.589844 L 98.71875 78.410156 L 95.4375 81.347656 L 92.261719 84.394531 L 89.1875 87.546875 L 86.222656 90.804688 L 83.371094 94.15625 L 80.632812 97.605469 L 78.015625 101.144531 L 75.519531 104.773438 L 73.148438 108.484375 L 70.902344 112.269531 L 68.789062 116.132812 L 66.804688 120.0625 L 64.957031 124.0625 L 63.246094 128.117188 L 61.675781 132.230469 L 60.242188 136.394531 L 64.496094 137.777344 L 68.746094 139.15625 L 73 140.539062 L 77.25 141.921875 L 81.5 143.300781 L 85.753906 144.683594 L 90.003906 146.0625 L 94.257812 147.445312 L 98.507812 148.828125 L 102.761719 150.207031 L 107.011719 151.589844 L 111.265625 152.972656 L 115.515625 154.351562 L 119.765625 155.734375 L 124.019531 157.117188 L 128.269531 158.496094 L 132.523438 159.878906 L 136.773438 161.261719 L 141.027344 162.640625 L 145.277344 164.023438 L 149.53125 165.40625 L 153.78125 166.785156 L 158.03125 168.167969 L 162.285156 169.550781 L 166.535156 170.929688 L 170.789062 172.3125 L 175.039062 173.695312 L 179.292969 175.074219 Z M 183.542969 176.457031 "
       id="path3196" />
  </g>
  <flowRoot
     xml:space="preserve"
     id="flowRoot3204"
     style="font-size:24px;font-style:normal;font-weight:bold;line-height:125%;letter-spacing:0px;word-spacing:0px;fill:#000000;fill-opacity:1;stroke:none;font-family:Sans;-inkscape-font-specification:Sans Bold"
     transform="scale(0.8,0.8)"><flowRegion
       id="flowRegion3206"><rect
         id="rect3208"
         width="29.555084"
         height="25.741526"
         x="138.24153"
         y="122.0339" /></flowRegion><flowPara
       id="flowPara3210">Eem</flowPara></flowRoot>  <text
     xml:space="preserve"
     style="font-size:19.20000076px;font-style:normal;font-weight:bold;line-height:125%;letter-spacing:0px;word-spacing:0px;fill:#000000;fill-opacity:1;stroke:none;font-family:Sans;-inkscape-font-specification:Sans Bold"
     x="83.8983"
     y="122.79661"
     id="text3212"
     sodipodi:linespacing="125%"><tspan
       sodipodi:role="line"
       id="tspan3214"
       x="83.8983"
       y="122.79661"
       style="fill:#ffffff">Empathy</tspan></text>
  <text
     sodipodi:linespacing="125%"
     id="text3216"
     y="130.79662"
     x="191.09836"
     style="font-size:19.20000076px;font-style:normal;font-weight:bold;line-height:125%;letter-spacing:0px;word-spacing:0px;fill:#000000;fill-opacity:1;stroke:none;font-family:Sans;-inkscape-font-specification:Sans Bold"
     xml:space="preserve"><tspan
       style="fill:#ffffff"
       y="130.79662"
       x="191.09836"
       id="tspan3218"
       sodipodi:role="line">Curiosity</tspan></text>
  <text
     xml:space="preserve"
     style="font-size:19.20000076px;font-style:normal;font-weight:bold;line-height:125%;letter-spacing:0px;word-spacing:0px;fill:#000000;fill-opacity:1;stroke:none;font-family:Sans;-inkscape-font-specification:Sans Bold"
     x="219.15265"
     y="189.45763"
     id="text3220"
     sodipodi:linespacing="125%"><tspan
       sodipodi:role="line"
       id="tspan3222"
       x="219.15265"
       y="189.45763"
       style="fill:#ffffff">Self</tspan><tspan
       sodipodi:role="line"
       x="219.15265"
       y="213.45763"
       style="fill:#ffffff"
       id="tspan3224">learner</tspan></text>
  <text
     xml:space="preserve"
     style="font-size:19.20000076px;font-style:normal;font-weight:bold;line-height:125%;letter-spacing:0px;word-spacing:0px;fill:#000000;fill-opacity:1;stroke:none;font-family:Sans;-inkscape-font-specification:Sans Bold"
     x="141.49835"
     y="257.19662"
     id="text3226"
     sodipodi:linespacing="125%"><tspan
       sodipodi:role="line"
       id="tspan3228"
       x="141.49835"
       y="257.19662"
       style="fill:#ffffff">Manage</tspan></text>
  <text
     sodipodi:linespacing="125%"
     id="text3230"
     y="188.39661"
     x="58.29837"
     style="font-size:19.20000076px;font-style:normal;font-weight:bold;line-height:125%;letter-spacing:0px;word-spacing:0px;fill:#000000;fill-opacity:1;stroke:none;font-family:Sans;-inkscape-font-specification:Sans Bold"
     xml:space="preserve"><tspan
       style="fill:#ffffff"
       y="188.39661"
       x="58.29837"
       id="tspan3232"
       sodipodi:role="line">Facilitator</tspan></text>
</svg>
