<?xml version="1.0" encoding="UTF-8" standalone="no"?>
<svg
   xmlns:dc="http://purl.org/dc/elements/1.1/"
   xmlns:cc="http://creativecommons.org/ns#"
   xmlns:rdf="http://www.w3.org/1999/02/22-rdf-syntax-ns#"
   xmlns:svg="http://www.w3.org/2000/svg"
   xmlns="http://www.w3.org/2000/svg"
   xmlns:sodipodi="http://sodipodi.sourceforge.net/DTD/sodipodi-0.dtd"
   xmlns:inkscape="http://www.inkscape.org/namespaces/inkscape"
   width="360pt"
   height="360pt"
   viewBox="0 0 360 360"
   version="1.1"
   id="svg3023"
   inkscape:version="0.48.4 r9939"
   sodipodi:docname="pieProgrammingNames.svg">
  <metadata
     id="metadata3040">
    <rdf:RDF>
      <cc:Work
         rdf:about="">
        <dc:format>image/svg+xml</dc:format>
        <dc:type
           rdf:resource="http://purl.org/dc/dcmitype/StillImage" />
        <dc:title />
      </cc:Work>
    </rdf:RDF>
  </metadata>
  <defs
     id="defs3038" />
  <sodipodi:namedview
     pagecolor="#ffffff"
     bordercolor="#666666"
     borderopacity="1"
     objecttolerance="10"
     gridtolerance="10"
     guidetolerance="10"
     inkscape:pageopacity="0"
     inkscape:pageshadow="2"
     inkscape:window-width="1301"
     inkscape:window-height="744"
     id="namedview3036"
     showgrid="false"
     inkscape:zoom="1.3266667"
     inkscape:cx="225"
     inkscape:cy="225"
     inkscape:window-x="65"
     inkscape:window-y="24"
     inkscape:window-maximized="1"
     inkscape:current-layer="svg3023" />
  <g
     id="surface7"
     transform="translate(1.2005847,0.21788616)">
    <rect
       id="rect3381"
       style="fill:#ffffff;fill-opacity:1;stroke:none"
       height="360"
       width="360"
       y="0"
       x="0" />
  </g>
  <g
     id="surface4"
     transform="translate(-9.5752823,-9.8401908)">
    <rect
       id="rect3535"
       style="fill:#ffffff;fill-opacity:1;stroke:none"
       height="360"
       width="360"
       y="0"
       x="0" />
    <path
       id="path3537"
       d="m 181.49609,178.50391 4.71094,0.67968 4.71094,0.67578 4.71094,0.67969 9.42187,1.35156 4.71094,0.67969 4.71094,0.67578 4.71093,0.67969 9.42188,1.35156 4.71094,0.67969 4.71093,0.67578 4.71094,0.67969 9.42188,1.35156 4.71093,0.67969 4.71094,0.67578 4.71094,0.67969 9.42187,1.35156 4.71094,0.67969 4.71094,0.67578 4.71094,0.67969 9.42187,1.35156 4.71094,0.67969 4.71094,0.67578 4.71093,0.67969 4.71094,0.67578 0.58984,-4.69141 0.4336,-4.71094 0.26953,-4.72265 0.10937,-4.73047 -0.0547,-4.73047 -0.21485,-4.72266 -0.3789,-4.71484 -0.53907,-4.69922 -0.69921,-4.67969 -0.85938,-4.65234 -1.01953,-4.61719 -1.17578,-4.58203 -1.33594,-4.53906 -1.48437,-4.48828 -1.64063,-4.4375 -1.79297,-4.37891 -1.9414,-4.3125 -2.08594,-4.24609 -2.23047,-4.16797 -2.37109,-4.09375 -2.51172,-4.00781 -2.64844,-3.917972 -2.78125,-3.828126 -2.91016,-3.730468 -3.03515,-3.625 -3.16016,-3.523438 -3.27344,-3.410156 -3.39453,-3.296875 -3.5039,-3.175781 -3.60938,-3.058594 -3.71094,-2.929688 -3.8125,-2.804687 -3.90234,-2.667969 -3.99609,-2.535156 -4.07813,-2.394531 -4.15625,-2.257813 -4.23437,-2.109375 -4.30079,-1.964843 -4.36718,-1.816407 -4.42969,-1.664062 -4.48047,-1.515625 -4.53125,-1.359375 -4.57422,-1.199219 -4.61328,-1.046875 -4.64453,-0.886719 -4.67578,-0.726562 -4.69531,-0.566406 -4.71094,-0.402344 -4.72656,-0.246094 -4.72657,-0.07813 z m 0,0"
       style="fill:#00b0f5;fill-opacity:1;fill-rule:nonzero;stroke:#ffffff;stroke-width:1.06697798;stroke-linecap:round;stroke-linejoin:round;stroke-miterlimit:10;stroke-opacity:1"
       inkscape:connector-curvature="0" />
    <path
       id="path3539"
       d="m 181.49609,178.50391 -14.39062,12.46875 -3.59375,3.11718 -10.79297,9.35157 -3.59766,3.11328 -3.59765,3.11718 -3.59375,3.11719 -14.39063,12.46875 -3.59375,3.11719 -3.59765,3.11328 -10.79297,9.35156 -3.59375,3.11719 -14.390628,12.46875 -3.59375,3.11328 -10.792968,9.35156 3.144531,3.50391 3.257813,3.39453 3.375,3.28125 3.484374,3.16406 3.589844,3.04688 3.691406,2.91797 3.785158,2.79297 3.88281,2.66015 3.97266,2.52735 4.05078,2.39062 4.13281,2.25391 4.21094,2.10937 4.27734,1.96485 4.33985,1.8164 4.40234,1.66797 4.45312,1.51563 4.50391,1.36718 4.55078,1.20704 4.58594,1.05468 4.62109,0.89844 4.64844,0.73828 4.66797,0.58203 4.6875,0.41797 4.69922,0.26172 4.70703,0.10156 4.70703,-0.0625 4.69922,-0.21875 4.69141,-0.38281 4.67578,-0.53906 4.65625,-0.69922 4.625,-0.85938 4.59765,-1.01171 4.5586,-1.17188 4.51562,-1.32812 4.46875,-1.47657 4.41406,-1.63281 4.35547,-1.78125 4.29297,-1.92578 4.22656,-2.07422 4.15235,-2.21484 4.07422,-2.35547 3.99218,-2.4961 3.90235,-2.625 3.8125,-2.76171 3.71875,-2.88672 3.61328,-3.01563 3.51172,-3.13281 3.40234,-3.25391 3.28906,-3.36718 3.17188,-3.47657 3.05078,-3.58203 2.92969,-3.6875 2.79687,-3.78125 2.67188,-3.875 2.53515,-3.96484 2.39844,-4.05078 2.26172,-4.12891 2.11719,-4.20312 1.97265,-4.27344 1.82813,-4.33594 1.67578,-4.39844 1.52734,-4.44922 1.375,-4.5039 1.21875,-4.54688 1.06641,-4.58203 0.90625,-4.62109 0.75,-4.64453 -4.71094,-0.67578 -4.71093,-0.67969 -4.71094,-0.67578 -4.71094,-0.67969 -9.42187,-1.35156 -4.71094,-0.67969 -4.71094,-0.67578 -4.71094,-0.67969 -9.42187,-1.35156 -4.71094,-0.67969 -4.71094,-0.67578 -4.71093,-0.67969 -9.42188,-1.35156 -4.71094,-0.67969 -4.71093,-0.67578 -4.71094,-0.67969 -9.42188,-1.35156 -4.71093,-0.67969 -4.71094,-0.67578 -4.71094,-0.67969 -9.42187,-1.35156 -4.71094,-0.67969 -4.71094,-0.67578 z m 0,0"
       style="fill:#e668f3;fill-opacity:1;fill-rule:nonzero;stroke:#ffffff;stroke-width:1.06697798;stroke-linecap:round;stroke-linejoin:round;stroke-miterlimit:10;stroke-opacity:1"
       inkscape:connector-curvature="0" />
    <path
       id="path3541"
       d="m 181.49609,178.50391 -4.71093,0.67968 -4.71094,0.67578 -4.71094,0.67969 -9.42187,1.35156 -4.71094,0.67969 -4.71094,0.67578 -4.71094,0.67969 -9.42187,1.35156 -4.71094,0.67969 -4.71094,0.67578 -4.71093,0.67969 -9.42188,1.35156 -4.71094,0.67969 -4.71093,0.67578 -4.710941,0.67969 -9.421875,1.35156 -4.714844,0.67969 -4.710938,0.67578 -4.710937,0.67969 -9.421875,1.35156 -4.710938,0.67969 -4.710937,0.67578 -4.710937,0.67969 -4.710938,0.67578 0.789062,4.86328 0.960938,4.83203 1.132812,4.79687 1.304688,4.75 1.472656,4.70313 1.640625,4.64453 1.800781,4.58594 1.96875,4.51953 2.125,4.44141 2.285157,4.36718 2.4375,4.28125 2.589843,4.19141 2.738282,4.09766 2.878906,3.99609 3.023438,3.89062 3.160156,3.78125 10.792968,-9.35156 3.59375,-3.11328 14.390628,-12.46875 3.59375,-3.11719 10.79297,-9.35156 3.59765,-3.11328 3.59375,-3.11719 14.39063,-12.46875 3.59375,-3.11719 3.59765,-3.11718 3.59766,-3.11328 10.79297,-9.35157 3.59375,-3.11718 z m 0,0"
       style="fill:#f8756b;fill-opacity:1;fill-rule:nonzero;stroke:#ffffff;stroke-width:1.06697798;stroke-linecap:round;stroke-linejoin:round;stroke-miterlimit:10;stroke-opacity:1"
       inkscape:connector-curvature="0" />
    <path
       id="path3543"
       d="m 181.49609,178.50391 -3.59765,-3.11329 -10.79297,-9.35156 -3.59375,-3.11719 -14.39063,-12.46875 -3.59765,-3.11328 -3.59375,-3.11718 -14.39063,-12.46875 -3.59375,-3.11719 -7.19531,-6.23438 -3.59766,-3.11328 -3.59765,-3.11718 -3.59375,-3.11719 -14.390628,-12.46875 -3.59375,-3.11719 -3.597656,-3.113281 -7.195312,-6.234375 -3.035156,3.625 -2.910157,3.730468 -2.78125,3.828126 -2.644531,3.917972 -2.511719,4.00781 -2.375,4.09375 -2.230469,4.16797 -2.085937,4.24609 -1.941406,4.3125 -1.792969,4.37891 -1.640625,4.4375 -1.484375,4.48828 -1.335938,4.53906 -1.175781,4.58203 -1.015625,4.61719 -0.863281,4.65234 -0.699219,4.67969 -0.539062,4.69922 -0.375,4.71484 -0.21875,4.72266 -0.05469,4.73047 0.109375,4.73047 0.269531,4.72265 0.433594,4.71094 0.589844,4.69141 4.710938,-0.67578 4.710937,-0.67969 4.710937,-0.67578 4.710938,-0.67969 9.421875,-1.35156 4.710937,-0.67969 4.710938,-0.67578 4.714844,-0.67969 9.421875,-1.35156 4.710943,-0.67969 4.71093,-0.67578 4.71094,-0.67969 9.42188,-1.35156 4.71093,-0.67969 4.71094,-0.67578 4.71094,-0.67969 9.42187,-1.35156 4.71094,-0.67969 4.71094,-0.67578 4.71094,-0.67969 9.42187,-1.35156 4.71094,-0.67969 4.71094,-0.67578 z m 0,0"
       style="fill:#00bd7d;fill-opacity:1;fill-rule:nonzero;stroke:#ffffff;stroke-width:1.06697798;stroke-linecap:round;stroke-linejoin:round;stroke-miterlimit:10;stroke-opacity:1"
       inkscape:connector-curvature="0" />
    <path
       id="path3545"
       d="m 181.49609,178.50391 0,-138.019535 -4.73047,0.07813 -4.72265,0.246094 -4.71485,0.402344 -4.69531,0.566406 -4.67578,0.726562 -4.64453,0.886719 -4.61328,1.046875 -4.57422,1.199219 -4.53125,1.359375 -4.48047,1.515625 -4.42969,1.664062 -4.36718,1.816407 -4.30078,1.964843 -4.23438,2.109375 -4.15625,2.257813 -4.07812,2.394531 -3.9961,2.535156 -3.90234,2.667969 -3.812502,2.804687 -3.710938,2.929688 -3.609375,3.058594 -3.503906,3.175781 -3.390625,3.296875 -3.277344,3.410156 -3.160156,3.523438 7.195312,6.234375 3.597656,3.113281 3.59375,3.117185 14.390628,12.46875 3.59375,3.11719 3.59765,3.11718 3.59766,3.11328 7.19531,6.23438 3.59375,3.11719 14.39063,12.46875 3.59375,3.11718 3.59765,3.11328 14.39063,12.46875 3.59375,3.11719 10.79297,9.35156 z m 0,0"
       style="fill:#a1a300;fill-opacity:1;fill-rule:nonzero;stroke:#ffffff;stroke-width:1.06697798;stroke-linecap:round;stroke-linejoin:round;stroke-miterlimit:10;stroke-opacity:1"
       inkscape:connector-curvature="0" />
  </g>
  <g
     id="g3572">
    <g
       id="g3560">
      <text
         xml:space="preserve"
         style="font-size:22.39999962px;font-style:normal;font-weight:bold;line-height:125%;letter-spacing:0px;word-spacing:0px;fill:#ffffff;fill-opacity:1;stroke:none;font-family:Sans;-inkscape-font-specification:Sans Bold"
         x="176.78883"
         y="243.68671"
         id="text3042"
         sodipodi:linespacing="125%"><tspan
           sodipodi:role="line"
           id="tspan3044"
           x="176.78883"
           y="243.68671">R</tspan></text>
      <text
         sodipodi:linespacing="125%"
         id="text3058"
         y="122.48235"
         x="192.39323"
         style="font-size:28.79999924px;font-style:normal;font-weight:bold;line-height:125%;letter-spacing:0px;word-spacing:0px;fill:#ffffff;fill-opacity:1;stroke:none;font-family:Sans;-inkscape-font-specification:Sans Bold"
         xml:space="preserve"><tspan
           y="122.48235"
           x="192.39323"
           id="tspan3060"
           sodipodi:role="line"
           style="font-size:22.39999962px">python</tspan></text>
      <text
         sodipodi:linespacing="125%"
         id="text3066"
         y="213.03462"
         x="49.274124"
         style="font-size:28.79999924px;font-style:normal;font-weight:bold;line-height:125%;letter-spacing:0px;word-spacing:0px;fill:#ffffff;fill-opacity:1;stroke:none;font-family:Sans;-inkscape-font-specification:Sans Bold"
         xml:space="preserve"><tspan
           y="213.03462"
           x="49.274124"
           id="tspan3068"
           sodipodi:role="line"
           style="font-size:22.39999962px">bash</tspan></text>
      <text
         xml:space="preserve"
         style="font-size:28.79999924px;font-style:normal;font-weight:bold;line-height:125%;letter-spacing:0px;word-spacing:0px;fill:#ffffff;fill-opacity:1;stroke:none;font-family:Sans;-inkscape-font-specification:Sans Bold"
         x="79.799812"
         y="80.073692"
         id="text3062"
         sodipodi:linespacing="125%"><tspan
           sodipodi:role="line"
           id="tspan3064"
           x="79.799812"
           y="80.073692"
           style="font-size:22.39999962px">matlab</tspan></text>
      <text
         sodipodi:linespacing="125%"
         id="text3416"
         y="150.47392"
         x="77.31871"
         style="font-size:28.79999924px;font-style:normal;font-weight:bold;line-height:125%;letter-spacing:0px;word-spacing:0px;fill:#ffffff;fill-opacity:1;stroke:none;font-family:Sans;-inkscape-font-specification:Sans Bold"
         xml:space="preserve"><tspan
           style="font-size:22.39999962px"
           y="150.47392"
           x="77.31871"
           id="tspan3418"
           sodipodi:role="line">JS</tspan></text>
    </g>
  </g>
  <text
     xml:space="preserve"
     style="font-size:24px;font-style:normal;font-weight:bold;line-height:125%;letter-spacing:0px;word-spacing:0px;fill:#000000;fill-opacity:1;stroke:none;font-family:Sans;-inkscape-font-specification:Sans Bold"
     x="103.81886"
     y="262.58673"
     id="text3420"
     sodipodi:linespacing="125%"
     transform="scale(0.8,0.8)"><tspan
       sodipodi:role="line"
       id="tspan3424"
       x="103.81886"
       y="262.58673" /></text>
</svg>
