<?xml version="1.0" encoding="UTF-8" standalone="no"?>
<svg
   xmlns:dc="http://purl.org/dc/elements/1.1/"
   xmlns:cc="http://creativecommons.org/ns#"
   xmlns:rdf="http://www.w3.org/1999/02/22-rdf-syntax-ns#"
   xmlns:svg="http://www.w3.org/2000/svg"
   xmlns="http://www.w3.org/2000/svg"
   xmlns:sodipodi="http://sodipodi.sourceforge.net/DTD/sodipodi-0.dtd"
   xmlns:inkscape="http://www.inkscape.org/namespaces/inkscape"
   width="360pt"
   height="360pt"
   viewBox="0 0 360 360"
   version="1.1"
   id="svg3023"
   inkscape:version="0.48.4 r9939"
   sodipodi:docname="pieProgrammingNames.svg">
  <metadata
     id="metadata3040">
    <rdf:RDF>
      <cc:Work
         rdf:about="">
        <dc:format>image/svg+xml</dc:format>
        <dc:type
           rdf:resource="http://purl.org/dc/dcmitype/StillImage" />
        <dc:title />
      </cc:Work>
    </rdf:RDF>
  </metadata>
  <defs
     id="defs3038" />
  <sodipodi:namedview
     pagecolor="#ffffff"
     bordercolor="#666666"
     borderopacity="1"
     objecttolerance="10"
     gridtolerance="10"
     guidetolerance="10"
     inkscape:pageopacity="0"
     inkscape:pageshadow="2"
     inkscape:window-width="1301"
     inkscape:window-height="744"
     id="namedview3036"
     showgrid="false"
     inkscape:zoom="1.4833529"
     inkscape:cx="460.07687"
     inkscape:cy="291.6275"
     inkscape:window-x="65"
     inkscape:window-y="24"
     inkscape:window-maximized="1"
     inkscape:current-layer="svg3023" />
  <g
     id="surface7"
     transform="translate(1.2005847,0.21788616)">
    <rect
       id="rect3381"
       style="fill:#ffffff;fill-opacity:1;stroke:none"
       height="360"
       width="360"
       y="0"
       x="0" />
    <path
       id="path3383"
       d="m 183.54297,176.45703 4.0664,-1.85937 8.13282,-3.71094 4.0664,-1.85938 4.06641,-1.85547 4.06641,-1.85937 8.13281,-3.71094 4.0664,-1.85937 4.06641,-1.85547 4.06641,-1.85938 4.0664,-1.85547 4.07032,-1.85937 8.13281,-3.71094 4.0664,-1.85937 4.06641,-1.85547 4.06641,-1.85938 4.0664,-1.85547 4.06641,-1.85937 8.13281,-3.71094 4.06641,-1.85937 4.0664,-1.85547 4.06641,-1.85938 4.06641,-1.85547 4.0664,-1.85937 8.13282,-3.71094 -1.9336,-4.05078 -2.07422,-3.98047 -2.21093,-3.90625 -2.34375,-3.82812 -2.47657,-3.74219 -2.60156,-3.65625 -2.72656,-3.5625 -2.85156,-3.46875 -2.96875,-3.363281 -3.08204,-3.261719 -3.19531,-3.152344 -3.30078,-3.042968 -3.40234,-2.921876 -3.50391,-2.804687 -3.59766,-2.683594 -3.6914,-2.554687 -3.77344,-2.425782 -3.85937,-2.292968 -3.9336,-2.160156 -4.00781,-2.023438 -4.07422,-1.878906 -4.13672,-1.742188 -4.19531,-1.59375 -4.24609,-1.449218 -4.29297,-1.304688 -4.33985,-1.152344 -4.375,-1 -4.40625,-0.847656 -4.43359,-0.699219 -4.45313,-0.539062 -4.47265,-0.390625 -4.48047,-0.230469 -4.48828,-0.07813 z m 0,0"
       style="fill:#00b0f5;fill-opacity:1;fill-rule:nonzero;stroke:#ffffff;stroke-width:1.06299198;stroke-linecap:round;stroke-linejoin:round;stroke-miterlimit:10;stroke-opacity:1"
       inkscape:connector-curvature="0" />
    <path
       id="path3385"
       d="m 183.54297,176.45703 -1.25781,4.28906 -1.26172,4.28907 -1.25782,4.28906 -1.26171,4.28906 -2.51563,8.57813 -1.26172,4.29296 -1.25781,4.28907 -1.26172,4.28906 -1.25781,4.28906 -1.26172,4.28906 -1.25781,4.28907 -1.26172,4.28906 -2.51563,8.57812 -1.26172,4.28907 -1.25781,4.29297 -1.26172,4.28906 -1.25781,4.28906 -1.26172,4.28906 -2.51562,8.57813 -1.26172,4.28906 -1.25781,4.28906 -1.26172,4.28907 -1.25782,4.28906 -1.26171,4.29297 -2.51563,8.57812 4.26172,1.17188 4.30078,1.02734 4.33203,0.87891 4.35938,0.73047 4.38281,0.58593 4.39844,0.42969 4.41015,0.28516 4.42188,0.1289 4.41797,-0.0156 4.41797,-0.17188 4.41015,-0.32031 4.39453,-0.46875 4.37891,-0.62109 4.35156,-0.76953 4.32813,-0.91407 4.28906,-1.0664 4.25391,-1.20703 4.20703,-1.35547 4.16015,-1.4961 4.10547,-1.63672 4.05078,-1.77734 3.98438,-1.91016 3.91797,-2.05078 3.84375,-2.17968 3.76953,-2.3086 3.6914,-2.4375 3.60157,-2.5625 3.51172,-2.68359 3.42187,-2.80078 3.32031,-2.91797 3.22266,-3.02735 3.11719,-3.13671 3.00781,-3.23829 2.89453,-3.34375 2.77734,-3.4375 2.66016,-3.53125 2.53906,-3.61718 2.41407,-3.70313 2.28906,-3.78515 2.15234,-3.85938 2.02344,-3.92969 1.89062,-4 1.75,-4.05859 1.60938,-4.11719 1.46875,-4.16797 1.32812,-4.21875 1.1836,-4.25781 1.03515,-4.30078 0.88672,-4.32813 0.74219,-4.35937 0.59375,-4.37891 0.44141,-4.40234 0.28906,-4.41016 0.14453,-4.41797 -0.0117,-4.42187 -0.16015,-4.41797 -0.3086,-4.41016 -0.46094,-4.39453 -0.61328,-4.3789 -0.75781,-4.35547 -0.90625,-4.32813 -1.05469,-4.29297 -1.20312,-4.2539 -1.34375,-4.21094 -1.48828,-4.16406 -1.625,-4.10938 -1.76953,-4.05078 -8.13282,3.71094 -4.0664,1.85937 -4.06641,1.85547 -4.06641,1.85938 -4.0664,1.85547 -4.06641,1.85937 -8.13281,3.71094 -4.06641,1.85937 -4.0664,1.85547 -4.06641,1.85938 -4.06641,1.85547 -4.0664,1.85937 -8.13281,3.71094 -4.07032,1.85937 -4.0664,1.85547 -4.06641,1.85938 -4.06641,1.85547 -4.0664,1.85937 -8.13281,3.71094 -4.06641,1.85937 -4.06641,1.85547 -4.0664,1.85938 -8.13282,3.71094 z m 0,0"
       style="fill:#e668f3;fill-opacity:1;fill-rule:nonzero;stroke:#ffffff;stroke-width:1.06299198;stroke-linecap:round;stroke-linejoin:round;stroke-miterlimit:10;stroke-opacity:1"
       inkscape:connector-curvature="0" />
    <path
       id="path3387"
       d="m 183.54297,176.45703 -3.37891,2.92578 -3.3789,2.92969 -3.37891,2.92578 -3.37891,2.92969 -3.3789,2.92578 -3.375,2.92969 -3.37891,2.92578 -3.37891,2.92969 -3.3789,2.92578 -3.37891,2.92968 -6.75781,5.85157 -3.37891,2.92968 -3.3789,2.92579 -3.37891,2.92968 -3.37891,2.92578 -3.3789,2.92969 -3.37891,2.92578 -3.375,2.92969 -3.3789,2.92578 -3.37891,2.92969 -6.75781,5.85156 -3.37891,2.92969 -3.378905,2.92578 -3.378906,2.92969 -3.378907,2.92578 -3.378906,2.92969 -3.378906,2.92578 3.09375,3.44531 3.214844,3.32813 3.328125,3.21484 3.445312,3.09375 3.550779,2.96484 3.65625,2.83985 3.75391,2.70703 3.84766,2.57031 3.9375,2.43359 4.01953,2.28907 4.10156,2.14843 4.17578,1.9961 4.24219,1.84765 4.30859,1.69532 4.36328,1.53906 4.41797,1.38281 2.51563,-8.57812 1.26171,-4.29297 1.25782,-4.28906 1.26172,-4.28907 1.25781,-4.28906 1.26172,-4.28906 2.51562,-8.57813 1.26172,-4.28906 1.25781,-4.28906 1.26172,-4.28906 1.25781,-4.29297 1.26172,-4.28907 2.51563,-8.57812 1.26172,-4.28906 1.25781,-4.28907 1.26172,-4.28906 1.25781,-4.28906 1.26172,-4.28906 1.25781,-4.28907 1.26172,-4.29296 2.51563,-8.57813 1.26171,-4.28906 1.25782,-4.28906 1.26172,-4.28907 z m 0,0"
       style="fill:#f8756b;fill-opacity:1;fill-rule:nonzero;stroke:#ffffff;stroke-width:1.06299198;stroke-linecap:round;stroke-linejoin:round;stroke-miterlimit:10;stroke-opacity:1"
       inkscape:connector-curvature="0" />
    <path
       id="path3389"
       d="m 183.54297,176.45703 -4.06641,-1.85937 -8.13281,-3.71094 -4.06641,-1.85938 -4.0664,-1.85547 -4.06641,-1.85937 -8.13281,-3.71094 -4.06641,-1.85937 -4.0664,-1.85547 -4.06641,-1.85938 -4.06641,-1.85547 -4.0664,-1.85937 -8.13281,-3.71094 -4.06641,-1.85937 -4.06641,-1.85547 -4.07031,-1.85938 -4.06641,-1.85547 -4.0664,-1.85937 -8.132815,-3.71094 -4.066406,-1.85937 -4.066407,-1.85547 -4.066406,-1.85938 -4.066406,-1.85547 -4.066406,-1.85937 -8.132813,-3.71094 -1.792969,4.11328 -1.648437,4.17188 -1.507813,4.23047 -1.355468,4.27734 -1.207032,4.32031 -1.058593,4.36328 -0.90625,4.39454 -0.753907,4.42187 -0.601562,4.44922 -0.445312,4.46484 -0.292969,4.48047 -0.132813,4.48438 0.01953,4.48828 0.171874,4.48437 0.332032,4.47657 0.484375,4.46093 0.636719,4.44141 0.792968,4.41797 0.945313,4.38672 1.09375,4.35156 1.246093,4.3125 1.394532,4.26562 1.542968,4.21485 1.683594,4.16015 1.832032,4.09766 1.96875,4.03125 2.105468,3.96484 2.246094,3.88672 2.375,3.80469 2.507812,3.72266 2.636719,3.63281 2.757813,3.53906 2.878906,3.44141 3.378906,-2.92578 3.378906,-2.92969 3.378907,-2.92578 3.378906,-2.92969 3.378907,-2.92578 3.37891,-2.92969 6.75781,-5.85156 3.37891,-2.92969 3.3789,-2.92578 3.375,-2.92969 3.37891,-2.92578 3.3789,-2.92969 3.37891,-2.92578 3.37891,-2.92968 3.3789,-2.92579 3.37891,-2.92968 6.75781,-5.85157 3.37891,-2.92968 3.3789,-2.92578 3.37891,-2.92969 3.37891,-2.92578 3.375,-2.92969 3.3789,-2.92578 3.37891,-2.92969 3.37891,-2.92578 3.3789,-2.92969 z m 0,0"
       style="fill:#00bd7d;fill-opacity:1;fill-rule:nonzero;stroke:#ffffff;stroke-width:1.06299198;stroke-linecap:round;stroke-linejoin:round;stroke-miterlimit:10;stroke-opacity:1"
       inkscape:connector-curvature="0" />
    <path
       id="path3391"
       d="m 183.54297,176.45703 0,-129.64453 -4.48828,0.07813 -4.48047,0.230469 -4.47266,0.390625 -4.45312,0.539062 -4.4336,0.699219 -4.40625,0.847656 -4.375,1 -4.33593,1.152344 -4.29688,1.304688 -4.24609,1.449218 -4.19532,1.59375 -4.13671,1.742188 -4.07422,1.878906 -4.00781,2.023438 -3.9336,2.160156 -3.85547,2.292968 -3.77734,2.425782 -3.6875,2.554687 -3.60156,2.683594 -3.5,2.804687 -3.406254,2.921876 -3.300781,3.042968 -3.195313,3.152344 -3.082031,3.261719 -2.96875,3.363281 -2.847656,3.46875 -2.730469,3.5625 -2.601562,3.656255 -2.476563,3.74218 -2.34375,3.82812 -2.210937,3.90625 -2.074219,3.98047 -1.933594,4.05078 8.132813,3.71094 4.066406,1.85937 4.066406,1.85547 4.066406,1.85938 4.066407,1.85547 4.066406,1.85937 8.132815,3.71094 4.0664,1.85937 4.06641,1.85547 4.07031,1.85938 4.06641,1.85547 4.06641,1.85937 8.13281,3.71094 4.0664,1.85937 4.06641,1.85547 4.06641,1.85938 4.0664,1.85547 4.06641,1.85937 8.13281,3.71094 4.06641,1.85937 4.0664,1.85547 4.06641,1.85938 8.13281,3.71094 z m 0,0"
       style="fill:#a1a300;fill-opacity:1;fill-rule:nonzero;stroke:#ffffff;stroke-width:1.06299198;stroke-linecap:round;stroke-linejoin:round;stroke-miterlimit:10;stroke-opacity:1"
       inkscape:connector-curvature="0" />
  </g>
  <text
     xml:space="preserve"
     style="font-size:22.39999962px;font-style:normal;font-weight:bold;line-height:125%;letter-spacing:0px;word-spacing:0px;fill:#ffffff;fill-opacity:1;stroke:none;font-family:Sans;-inkscape-font-specification:Sans Bold"
     x="222.09161"
     y="233.97897"
     id="text3042"
     sodipodi:linespacing="125%"><tspan
       sodipodi:role="line"
       id="tspan3044"
       x="222.09161"
       y="233.97897">R</tspan></text>
  <text
     sodipodi:linespacing="125%"
     id="text3058"
     y="112.77461"
     x="190.77528"
     style="font-size:28.79999924px;font-style:normal;font-weight:bold;line-height:125%;letter-spacing:0px;word-spacing:0px;fill:#ffffff;fill-opacity:1;stroke:none;font-family:Sans;-inkscape-font-specification:Sans Bold"
     xml:space="preserve"><tspan
       y="112.77461"
       x="190.77528"
       id="tspan3060"
       sodipodi:role="line"
       style="font-size:22.39999962px">python</tspan></text>
  <text
     sodipodi:linespacing="125%"
     id="text3066"
     y="266.96649"
     x="98.352127"
     style="font-size:28.79999924px;font-style:normal;font-weight:bold;line-height:125%;letter-spacing:0px;word-spacing:0px;fill:#ffffff;fill-opacity:1;stroke:none;font-family:Sans;-inkscape-font-specification:Sans Bold"
     xml:space="preserve"><tspan
       y="266.96649"
       x="98.352127"
       id="tspan3068"
       sodipodi:role="line"
       style="font-size:22.39999962px">bash</tspan></text>
  <text
     xml:space="preserve"
     style="font-size:28.79999924px;font-style:normal;font-weight:bold;line-height:125%;letter-spacing:0px;word-spacing:0px;fill:#ffffff;fill-opacity:1;stroke:none;font-family:Sans;-inkscape-font-specification:Sans Bold"
     x="88.428909"
     y="120.5226"
     id="text3062"
     sodipodi:linespacing="125%"><tspan
       sodipodi:role="line"
       id="tspan3064"
       x="88.428909"
       y="120.5226"
       style="font-size:22.39999962px">matlab</tspan></text>
  <text
     sodipodi:linespacing="125%"
     id="text3416"
     y="192.54079"
     x="89.183723"
     style="font-size:28.79999924px;font-style:normal;font-weight:bold;line-height:125%;letter-spacing:0px;word-spacing:0px;fill:#ffffff;fill-opacity:1;stroke:none;font-family:Sans;-inkscape-font-specification:Sans Bold"
     xml:space="preserve"><tspan
       style="font-size:22.39999962px"
       y="192.54079"
       x="89.183723"
       id="tspan3418"
       sodipodi:role="line">JS</tspan></text>
  <text
     xml:space="preserve"
     style="font-size:24px;font-style:normal;font-weight:bold;line-height:125%;letter-spacing:0px;word-spacing:0px;fill:#000000;fill-opacity:1;stroke:none;font-family:Sans;-inkscape-font-specification:Sans Bold"
     x="103.81886"
     y="262.58673"
     id="text3420"
     sodipodi:linespacing="125%"
     transform="scale(0.8,0.8)"><tspan
       sodipodi:role="line"
       id="tspan3424"
       x="103.81886"
       y="262.58673" /></text>
</svg>
