<?xml version="1.0" encoding="UTF-8" standalone="no"?>
<svg
   xmlns:dc="http://purl.org/dc/elements/1.1/"
   xmlns:cc="http://creativecommons.org/ns#"
   xmlns:rdf="http://www.w3.org/1999/02/22-rdf-syntax-ns#"
   xmlns:svg="http://www.w3.org/2000/svg"
   xmlns="http://www.w3.org/2000/svg"
   xmlns:sodipodi="http://sodipodi.sourceforge.net/DTD/sodipodi-0.dtd"
   xmlns:inkscape="http://www.inkscape.org/namespaces/inkscape"
   width="360pt"
   height="360pt"
   viewBox="0 0 360 360"
   version="1.1"
   id="svg3023"
   inkscape:version="0.48.4 r9939"
   sodipodi:docname="pieProgramming.svg">
  <metadata
     id="metadata3040">
    <rdf:RDF>
      <cc:Work
         rdf:about="">
        <dc:format>image/svg+xml</dc:format>
        <dc:type
           rdf:resource="http://purl.org/dc/dcmitype/StillImage" />
        <dc:title></dc:title>
      </cc:Work>
    </rdf:RDF>
  </metadata>
  <defs
     id="defs3038" />
  <sodipodi:namedview
     pagecolor="#ffffff"
     bordercolor="#666666"
     borderopacity="1"
     objecttolerance="10"
     gridtolerance="10"
     guidetolerance="10"
     inkscape:pageopacity="0"
     inkscape:pageshadow="2"
     inkscape:window-width="1855"
     inkscape:window-height="1056"
     id="namedview3036"
     showgrid="false"
     inkscape:zoom="1.4833529"
     inkscape:cx="-26.304924"
     inkscape:cy="226.07594"
     inkscape:window-x="1745"
     inkscape:window-y="24"
     inkscape:window-maximized="1"
     inkscape:current-layer="svg3023" />
  <g
     id="surface10">
    <rect
       x="0"
       y="0"
       width="360"
       height="360"
       style="fill:rgb(100%,100%,100%);fill-opacity:1;stroke:none;"
       id="rect3026" />
    <path
       style="fill-rule:nonzero;fill:rgb(0%,74.901961%,76.862745%);fill-opacity:1;stroke-width:1.062992;stroke-linecap:round;stroke-linejoin:round;stroke:rgb(100%,100%,100%);stroke-opacity:1;stroke-miterlimit:10;"
       d="M 183.542969 176.457031 L 187.796875 175.074219 L 192.046875 173.695312 L 196.296875 172.3125 L 200.550781 170.929688 L 204.800781 169.550781 L 209.054688 168.167969 L 213.304688 166.785156 L 217.558594 165.40625 L 221.808594 164.023438 L 226.0625 162.640625 L 230.3125 161.261719 L 234.5625 159.878906 L 238.816406 158.496094 L 243.066406 157.117188 L 247.320312 155.734375 L 251.570312 154.351562 L 255.824219 152.972656 L 264.324219 150.207031 L 268.578125 148.828125 L 272.828125 147.445312 L 277.082031 146.0625 L 281.332031 144.683594 L 285.585938 143.300781 L 289.835938 141.921875 L 294.089844 140.539062 L 298.339844 139.15625 L 302.589844 137.777344 L 306.84375 136.394531 L 305.410156 132.230469 L 303.839844 128.117188 L 302.128906 124.0625 L 300.28125 120.0625 L 298.300781 116.132812 L 296.183594 112.269531 L 293.941406 108.484375 L 291.566406 104.773438 L 289.070312 101.144531 L 286.453125 97.605469 L 283.71875 94.15625 L 280.863281 90.804688 L 277.898438 87.546875 L 274.828125 84.394531 L 271.648438 81.347656 L 268.367188 78.410156 L 264.988281 75.589844 L 261.515625 72.878906 L 257.953125 70.292969 L 254.308594 67.828125 L 250.578125 65.488281 L 246.769531 63.273438 L 242.890625 61.191406 L 238.941406 59.242188 L 234.929688 57.429688 L 230.859375 55.753906 L 226.734375 54.21875 L 222.558594 52.820312 L 218.335938 51.566406 L 214.074219 50.457031 L 209.78125 49.492188 L 205.453125 48.675781 L 201.101562 48.007812 L 196.730469 47.484375 L 192.34375 47.109375 L 187.945312 46.886719 L 183.542969 46.8125 Z M 183.542969 176.457031 "
       id="path3028" />
    <path
       style="fill-rule:nonzero;fill:rgb(78.039216%,48.627451%,100%);fill-opacity:1;stroke-width:1.062992;stroke-linecap:round;stroke-linejoin:round;stroke:rgb(100%,100%,100%);stroke-opacity:1;stroke-miterlimit:10;"
       d="M 183.542969 176.457031 L 179.292969 177.839844 L 175.039062 179.21875 L 170.789062 180.601562 L 166.535156 181.984375 L 162.285156 183.363281 L 158.03125 184.746094 L 153.78125 186.128906 L 149.53125 187.507812 L 145.277344 188.890625 L 141.027344 190.269531 L 136.773438 191.652344 L 132.523438 193.035156 L 128.269531 194.414062 L 124.019531 195.796875 L 119.765625 197.179688 L 115.515625 198.558594 L 111.265625 199.941406 L 107.011719 201.324219 L 102.761719 202.703125 L 98.507812 204.085938 L 94.257812 205.46875 L 90.003906 206.847656 L 85.753906 208.230469 L 81.5 209.613281 L 77.25 210.992188 L 73 212.375 L 68.746094 213.757812 L 64.496094 215.136719 L 60.242188 216.519531 L 61.683594 220.707031 L 63.265625 224.839844 L 64.988281 228.917969 L 66.847656 232.933594 L 68.84375 236.886719 L 70.972656 240.765625 L 73.234375 244.574219 L 75.625 248.300781 L 78.140625 251.941406 L 80.777344 255.496094 L 83.535156 258.960938 L 86.410156 262.324219 L 89.398438 265.589844 L 92.5 268.753906 L 95.703125 271.808594 L 99.007812 274.75 L 102.414062 277.582031 L 105.914062 280.292969 L 109.503906 282.882812 L 113.179688 285.347656 L 116.941406 287.6875 L 120.777344 289.894531 L 124.6875 291.972656 L 128.664062 293.914062 L 132.707031 295.71875 L 136.808594 297.386719 L 140.964844 298.910156 L 145.167969 300.292969 L 149.417969 301.53125 L 153.707031 302.621094 L 158.035156 303.566406 L 162.386719 304.363281 L 166.765625 305.011719 L 171.167969 305.511719 L 175.578125 305.855469 L 180.003906 306.054688 L 184.429688 306.097656 L 188.855469 305.992188 L 193.273438 305.738281 L 197.683594 305.328125 L 202.074219 304.769531 L 206.445312 304.0625 L 210.785156 303.207031 L 215.097656 302.203125 L 219.371094 301.050781 L 223.605469 299.757812 L 227.792969 298.316406 L 231.925781 296.734375 L 236.003906 295.011719 L 240.023438 293.152344 L 243.972656 291.15625 L 247.855469 289.027344 L 251.660156 286.765625 L 255.386719 284.375 L 259.027344 281.859375 L 262.582031 279.222656 L 266.046875 276.464844 L 269.410156 273.589844 L 272.679688 270.601562 L 275.839844 267.5 L 278.894531 264.296875 L 281.839844 260.992188 L 284.667969 257.585938 L 287.378906 254.085938 L 289.96875 250.496094 L 292.433594 246.820312 L 294.773438 243.058594 L 296.980469 239.222656 L 299.058594 235.3125 L 301 231.335938 L 302.804688 227.292969 L 304.472656 223.191406 L 305.996094 219.035156 L 307.378906 214.832031 L 308.617188 210.582031 L 309.710938 206.292969 L 310.652344 201.964844 L 311.449219 197.613281 L 312.097656 193.234375 L 312.597656 188.832031 L 312.945312 184.421875 L 313.140625 179.996094 L 313.1875 175.570312 L 313.078125 171.144531 L 312.824219 166.726562 L 312.414062 162.316406 L 311.859375 157.925781 L 311.148438 153.554688 L 310.292969 149.214844 L 309.289062 144.902344 L 308.140625 140.628906 L 306.84375 136.394531 L 302.589844 137.777344 L 298.339844 139.15625 L 294.089844 140.539062 L 289.835938 141.921875 L 285.585938 143.300781 L 281.332031 144.683594 L 277.082031 146.0625 L 272.828125 147.445312 L 268.578125 148.828125 L 264.324219 150.207031 L 255.824219 152.972656 L 251.570312 154.351562 L 247.320312 155.734375 L 243.066406 157.117188 L 238.816406 158.496094 L 234.5625 159.878906 L 230.3125 161.261719 L 226.0625 162.640625 L 221.808594 164.023438 L 217.558594 165.40625 L 213.304688 166.785156 L 209.054688 168.167969 L 204.800781 169.550781 L 200.550781 170.929688 L 196.296875 172.3125 L 192.046875 173.695312 L 187.796875 175.074219 Z M 183.542969 176.457031 "
       id="path3030" />
    <path
       style="fill-rule:nonzero;fill:rgb(97.254902%,46.27451%,42.745098%);fill-opacity:1;stroke-width:1.062992;stroke-linecap:round;stroke-linejoin:round;stroke:rgb(100%,100%,100%);stroke-opacity:1;stroke-miterlimit:10;"
       d="M 183.542969 176.457031 L 179.292969 175.074219 L 175.039062 173.695312 L 170.789062 172.3125 L 166.535156 170.929688 L 162.285156 169.550781 L 158.03125 168.167969 L 153.78125 166.785156 L 149.53125 165.40625 L 145.277344 164.023438 L 141.027344 162.640625 L 136.773438 161.261719 L 132.523438 159.878906 L 128.269531 158.496094 L 124.019531 157.117188 L 119.765625 155.734375 L 115.515625 154.351562 L 111.265625 152.972656 L 107.011719 151.589844 L 102.761719 150.207031 L 98.507812 148.828125 L 94.257812 147.445312 L 90.003906 146.0625 L 85.753906 144.683594 L 81.5 143.300781 L 77.25 141.921875 L 73 140.539062 L 68.746094 139.15625 L 64.496094 137.777344 L 60.242188 136.394531 L 58.921875 140.722656 L 57.75 145.09375 L 56.730469 149.5 L 55.867188 153.945312 L 55.160156 158.414062 L 54.609375 162.90625 L 54.214844 167.414062 L 53.976562 171.933594 L 53.898438 176.457031 L 53.976562 180.980469 L 54.214844 185.5 L 54.609375 190.007812 L 55.160156 194.5 L 55.867188 198.96875 L 56.730469 203.410156 L 57.75 207.820312 L 58.921875 212.191406 L 60.242188 216.519531 L 64.496094 215.136719 L 68.746094 213.757812 L 73 212.375 L 77.25 210.992188 L 81.5 209.613281 L 85.753906 208.230469 L 90.003906 206.847656 L 94.257812 205.46875 L 98.507812 204.085938 L 102.761719 202.703125 L 107.011719 201.324219 L 111.265625 199.941406 L 115.515625 198.558594 L 119.765625 197.179688 L 124.019531 195.796875 L 128.269531 194.414062 L 132.523438 193.035156 L 136.773438 191.652344 L 141.027344 190.269531 L 145.277344 188.890625 L 149.53125 187.507812 L 153.78125 186.128906 L 158.03125 184.746094 L 162.285156 183.363281 L 166.535156 181.984375 L 170.789062 180.601562 L 175.039062 179.21875 L 179.292969 177.839844 Z M 183.542969 176.457031 "
       id="path3032" />
    <path
       style="fill-rule:nonzero;fill:rgb(48.627451%,68.235294%,0%);fill-opacity:1;stroke-width:1.062992;stroke-linecap:round;stroke-linejoin:round;stroke:rgb(100%,100%,100%);stroke-opacity:1;stroke-miterlimit:10;"
       d="M 183.542969 176.457031 L 183.542969 46.8125 L 179.140625 46.886719 L 174.742188 47.109375 L 170.355469 47.484375 L 165.984375 48.007812 L 161.632812 48.675781 L 157.308594 49.492188 L 153.011719 50.457031 L 148.75 51.566406 L 144.527344 52.820312 L 140.351562 54.21875 L 136.226562 55.753906 L 132.15625 57.429688 L 128.144531 59.242188 L 124.195312 61.191406 L 120.316406 63.273438 L 116.507812 65.488281 L 112.78125 67.828125 L 109.132812 70.292969 L 105.570312 72.878906 L 102.097656 75.589844 L 98.71875 78.410156 L 95.4375 81.347656 L 92.261719 84.394531 L 89.1875 87.546875 L 86.222656 90.804688 L 83.371094 94.15625 L 80.632812 97.605469 L 78.015625 101.144531 L 75.519531 104.773438 L 73.148438 108.484375 L 70.902344 112.269531 L 68.789062 116.132812 L 66.804688 120.0625 L 64.957031 124.0625 L 63.246094 128.117188 L 61.675781 132.230469 L 60.242188 136.394531 L 64.496094 137.777344 L 68.746094 139.15625 L 73 140.539062 L 77.25 141.921875 L 81.5 143.300781 L 85.753906 144.683594 L 90.003906 146.0625 L 94.257812 147.445312 L 98.507812 148.828125 L 102.761719 150.207031 L 107.011719 151.589844 L 111.265625 152.972656 L 115.515625 154.351562 L 119.765625 155.734375 L 124.019531 157.117188 L 128.269531 158.496094 L 132.523438 159.878906 L 136.773438 161.261719 L 141.027344 162.640625 L 145.277344 164.023438 L 149.53125 165.40625 L 153.78125 166.785156 L 158.03125 168.167969 L 162.285156 169.550781 L 166.535156 170.929688 L 170.789062 172.3125 L 175.039062 173.695312 L 179.292969 175.074219 Z M 183.542969 176.457031 "
       id="path3034" />
  </g>
  <text
     xml:space="preserve"
     style="font-size:22.4px;font-style:normal;font-weight:bold;line-height:125%;letter-spacing:0px;word-spacing:0px;fill:#ffffff;fill-opacity:1;stroke:none;font-family:Sans;-inkscape-font-specification:Sans Bold"
     x="190.81113"
     y="240.45081"
     id="text3042"
     sodipodi:linespacing="125%"><tspan
       sodipodi:role="line"
       id="tspan3044"
       x="190.81113"
       y="240.45081">R</tspan></text>
  <text
     sodipodi:linespacing="125%"
     id="text3058"
     y="131.65076"
     x="194.0112"
     style="font-size:28.79999924px;font-style:normal;font-weight:bold;line-height:125%;letter-spacing:0px;word-spacing:0px;fill:#ffffff;fill-opacity:1;stroke:none;font-family:Sans;-inkscape-font-specification:Sans Bold"
     xml:space="preserve"><tspan
       y="131.65076"
       x="194.0112"
       id="tspan3060"
       sodipodi:role="line"
       style="font-size:22.39999962px">python</tspan></text>
  <text
     xml:space="preserve"
     style="font-size:28.79999924px;font-style:normal;font-weight:bold;line-height:125%;letter-spacing:0px;word-spacing:0px;fill:#ffffff;fill-opacity:1;stroke:none;font-family:Sans;-inkscape-font-specification:Sans Bold"
     x="86.810951"
     y="114.05076"
     id="text3062"
     sodipodi:linespacing="125%"><tspan
       sodipodi:role="line"
       id="tspan3064"
       x="86.810951"
       y="114.05076"
       style="font-size:22.39999962px">matlab</tspan></text>
  <text
     sodipodi:linespacing="125%"
     id="text3066"
     y="184.45071"
     x="67.61097"
     style="font-size:28.79999924px;font-style:normal;font-weight:bold;line-height:125%;letter-spacing:0px;word-spacing:0px;fill:#ffffff;fill-opacity:1;stroke:none;font-family:Sans;-inkscape-font-specification:Sans Bold"
     xml:space="preserve"><tspan
       y="184.45071"
       x="67.61097"
       id="tspan3068"
       sodipodi:role="line"
       style="font-size:22.39999962px">bash</tspan></text>
</svg>
