<?xml version="1.0" encoding="UTF-8" standalone="no"?>
<svg
   xmlns:dc="http://purl.org/dc/elements/1.1/"
   xmlns:cc="http://creativecommons.org/ns#"
   xmlns:rdf="http://www.w3.org/1999/02/22-rdf-syntax-ns#"
   xmlns:svg="http://www.w3.org/2000/svg"
   xmlns="http://www.w3.org/2000/svg"
   xmlns:sodipodi="http://sodipodi.sourceforge.net/DTD/sodipodi-0.dtd"
   xmlns:inkscape="http://www.inkscape.org/namespaces/inkscape"
   width="360pt"
   height="360pt"
   viewBox="0 0 360 360"
   version="1.1"
   id="svg3023"
   inkscape:version="0.91 r13725"
   sodipodi:docname="pieProgrammingNames.svg">
  <metadata
     id="metadata3040">
    <rdf:RDF>
      <cc:Work
         rdf:about="">
        <dc:format>image/svg+xml</dc:format>
        <dc:type
           rdf:resource="http://purl.org/dc/dcmitype/StillImage" />
        <dc:title />
      </cc:Work>
    </rdf:RDF>
  </metadata>
  <defs
     id="defs3038">
    <style
       id="style3448"
       type="text/css"><![CDATA[
    line, polyline, path, rect, circle {
      fill: none;
      stroke: #000000;
      stroke-linecap: round;
      stroke-linejoin: round;
      stroke-miterlimit: 10.00;
    }
  ]]></style>
  </defs>
  <sodipodi:namedview
     pagecolor="#ffffff"
     bordercolor="#666666"
     borderopacity="1"
     objecttolerance="10"
     gridtolerance="10"
     guidetolerance="10"
     inkscape:pageopacity="0"
     inkscape:pageshadow="2"
     inkscape:window-width="1855"
     inkscape:window-height="1056"
     id="namedview3036"
     showgrid="false"
     inkscape:zoom="1.3266667"
     inkscape:cx="225"
     inkscape:cy="225"
     inkscape:window-x="65"
     inkscape:window-y="332"
     inkscape:window-maximized="1"
     inkscape:current-layer="svg3023" />
  <g
     id="surface7"
     transform="matrix(1.0100503,0,0,1.0100503,-2.4175057,0.21788616)">
    <rect
       id="rect3381"
       style="fill:#ffffff;fill-opacity:1;stroke:none;stroke-linecap:round;stroke-linejoin:round;stroke-miterlimit:10"
       height="360"
       width="360"
       y="0"
       x="0" />
  </g>
  <g
     id="g3475"
     transform="matrix(1.2234406,0,0,1.2157141,-37.71902,-37.215512)">
    <rect
       id="rect3450"
       style="fill:#ffffff;stroke:none;stroke-linecap:round;stroke-linejoin:round;stroke-miterlimit:10"
       height="1"
       width="1"
       x="0"
       y="0" />
    <polyline
       id="polyline3457"
       clip-path="url(#cpOC4yMTkxOHwzNTQuNTIxfDM1MS43ODF8NS40Nzk0NQ==)"
       style="fill:#c77cff;stroke:#ffffff;stroke-width:1.07000005;stroke-linecap:round;stroke-linejoin:round;stroke-miterlimit:10"
       points="181.37,178.63 184.18,182.49 186.99,186.36 189.79,190.22 192.60,194.09 195.41,197.95 198.22,201.82 201.02,205.68 203.83,209.54 206.64,213.41 209.45,217.27 212.25,221.14 215.06,225.00 217.87,228.87 220.68,232.73 223.48,236.60 226.29,240.46 229.10,244.32 231.91,248.19 234.71,252.05 237.52,255.92 240.33,259.78 243.14,263.65 245.94,267.51 248.75,271.37 251.56,275.24 254.37,279.10 257.18,282.97 259.98,286.83 262.79,290.70 266.55,287.87 270.21,284.91 273.77,281.83 277.22,278.64 280.56,275.32 283.78,271.90 286.89,268.37 289.88,264.73 292.74,261.00 295.47,257.17 298.07,253.25 300.54,249.24 302.87,245.16 305.06,240.99 307.10,236.76 309.01,232.45 310.76,228.09 312.36,223.67 313.82,219.19 315.12,214.67 316.27,210.11 317.26,205.51 318.09,200.88 318.77,196.22 319.29,191.55 319.65,186.86 319.85,182.16 319.89,177.45 319.77,172.75 319.49,168.06 319.05,163.37 318.45,158.70 317.69,154.06 316.78,149.45 315.71,144.87 314.49,140.32 313.11,135.82 311.58,131.38 309.90,126.98 308.07,122.65 306.10,118.38 303.98,114.18 301.72,110.05 299.32,106.00 296.79,102.04 294.12,98.16 291.33,94.38 288.40,90.70 285.35,87.11 282.19,83.63 278.90,80.27 275.51,77.01 272.00,73.87 268.39,70.86 264.68,67.96 260.88,65.20 256.98,62.56 252.99,60.06 248.93,57.70 244.78,55.48 240.56,53.39 236.28,51.46 231.92,49.66 227.52,48.02 223.05,46.53 218.55,45.19 213.99,44.01 209.40,42.98 204.78,42.10 200.13,41.39 195.46,40.83 190.77,40.43 186.07,40.19 181.37,40.11 181.37,44.89 181.37,49.66 181.37,54.44 181.37,59.22 181.37,63.99 181.37,68.77 181.37,73.55 181.37,78.32 181.37,83.10 181.37,87.88 181.37,92.65 181.37,97.43 181.37,102.21 181.37,106.98 181.37,111.76 181.37,116.53 181.37,121.31 181.37,126.09 181.37,130.86 181.37,135.64 181.37,140.42 181.37,145.19 181.37,149.97 181.37,154.75 181.37,159.52 181.37,164.30 181.37,169.08 181.37,173.85 181.37,178.63 181.37,178.63 " />
    <polyline
       id="polyline3459"
       clip-path="url(#cpOC4yMTkxOHwzNTQuNTIxfDM1MS43ODF8NS40Nzk0NQ==)"
       style="fill:#00bfc4;stroke:#ffffff;stroke-width:1.07000005;stroke-linecap:round;stroke-linejoin:round;stroke-miterlimit:10"
       points="181.37,178.63 176.83,177.15 172.28,175.68 167.74,174.20 163.20,172.73 158.66,171.25 154.11,169.77 149.57,168.30 145.03,166.82 140.48,165.35 135.94,163.87 131.40,162.39 126.86,160.92 122.31,159.44 117.77,157.97 113.23,156.49 108.69,155.01 104.14,153.54 99.60,152.06 95.06,150.59 90.51,149.11 85.97,147.63 81.43,146.16 76.89,144.68 72.34,143.21 67.80,141.73 63.26,140.25 58.71,138.78 54.17,137.30 49.63,135.82 48.25,140.32 47.03,144.87 45.96,149.45 45.05,154.06 44.29,158.70 43.69,163.37 43.25,168.06 42.97,172.75 42.85,177.45 42.89,182.16 43.09,186.86 43.45,191.55 43.97,196.22 44.65,200.88 45.48,205.51 46.47,210.11 47.62,214.67 48.92,219.19 50.37,223.67 51.98,228.09 53.73,232.45 55.63,236.76 57.68,240.99 59.87,245.16 62.20,249.24 64.67,253.25 67.27,257.17 70.00,261.00 72.86,264.73 75.85,268.37 78.96,271.90 82.18,275.32 85.52,278.64 88.97,281.83 92.53,284.91 96.19,287.87 99.95,290.70 103.80,293.40 107.74,295.96 111.77,298.40 115.88,300.69 120.06,302.84 124.31,304.85 128.63,306.72 133.01,308.44 137.45,310.00 141.93,311.42 146.47,312.68 151.04,313.79 155.64,314.74 160.28,315.54 164.94,316.17 169.62,316.65 174.32,316.97 179.02,317.13 183.72,317.13 188.42,316.97 193.12,316.65 197.80,316.17 202.46,315.54 207.09,314.74 211.70,313.79 216.27,312.68 220.81,311.42 225.29,310.00 229.73,308.44 234.11,306.72 238.43,304.85 242.68,302.84 246.86,300.69 250.97,298.40 255.00,295.96 258.94,293.40 262.79,290.70 259.98,286.83 257.18,282.97 254.37,279.10 251.56,275.24 248.75,271.37 245.94,267.51 243.14,263.65 240.33,259.78 237.52,255.92 234.71,252.05 231.91,248.19 229.10,244.32 226.29,240.46 223.48,236.60 220.68,232.73 217.87,228.87 215.06,225.00 212.25,221.14 209.45,217.27 206.64,213.41 203.83,209.54 201.02,205.68 198.22,201.82 195.41,197.95 192.60,194.09 189.79,190.22 186.99,186.36 184.18,182.49 181.37,178.63 181.37,178.63 " />
    <polyline
       id="polyline3461"
       clip-path="url(#cpOC4yMTkxOHwzNTQuNTIxfDM1MS43ODF8NS40Nzk0NQ==)"
       style="fill:#7cae00;stroke:#ffffff;stroke-width:1.07000005;stroke-linecap:round;stroke-linejoin:round;stroke-miterlimit:10"
       points="181.37,178.63 178.56,174.77 175.75,170.90 172.95,167.04 170.14,163.17 167.33,159.31 164.52,155.44 161.72,151.58 158.91,147.72 156.10,143.85 153.29,139.99 150.49,136.12 147.68,132.26 144.87,128.39 142.06,124.53 139.26,120.67 136.45,116.80 133.64,112.94 130.83,109.07 128.03,105.21 125.22,101.34 122.41,97.48 119.60,93.61 116.80,89.75 113.99,85.89 111.18,82.02 108.37,78.16 105.56,74.29 102.76,70.43 99.95,66.56 96.09,69.47 92.33,72.52 88.68,75.69 85.15,78.99 81.73,82.41 78.43,85.94 75.26,89.59 72.21,93.35 69.30,97.21 66.53,101.17 63.90,105.23 61.41,109.37 59.06,113.60 56.87,117.91 54.83,122.29 52.94,126.74 51.20,131.25 49.63,135.82 54.17,137.30 58.71,138.78 63.26,140.25 67.80,141.73 72.34,143.21 76.89,144.68 81.43,146.16 85.97,147.63 90.51,149.11 95.06,150.59 99.60,152.06 104.14,153.54 108.69,155.01 113.23,156.49 117.77,157.97 122.31,159.44 126.86,160.92 131.40,162.39 135.94,163.87 140.48,165.35 145.03,166.82 149.57,168.30 154.11,169.77 158.66,171.25 163.20,172.73 167.74,174.20 172.28,175.68 176.83,177.15 181.37,178.63 181.37,178.63 " />
    <polyline
       id="polyline3463"
       clip-path="url(#cpOC4yMTkxOHwzNTQuNTIxfDM1MS43ODF8NS40Nzk0NQ==)"
       style="fill:#f8766d;stroke:#ffffff;stroke-width:1.07000005;stroke-linecap:round;stroke-linejoin:round;stroke-miterlimit:10"
       points="181.37,178.63 181.37,173.85 181.37,169.08 181.37,164.30 181.37,159.52 181.37,154.75 181.37,149.97 181.37,145.19 181.37,140.42 181.37,135.64 181.37,130.86 181.37,126.09 181.37,121.31 181.37,116.53 181.37,111.76 181.37,106.98 181.37,102.21 181.37,97.43 181.37,92.65 181.37,87.88 181.37,83.10 181.37,78.32 181.37,73.55 181.37,68.77 181.37,63.99 181.37,59.22 181.37,54.44 181.37,49.66 181.37,44.89 181.37,40.11 176.54,40.19 171.71,40.45 166.89,40.87 162.09,41.46 157.32,42.21 152.57,43.14 147.86,44.22 143.19,45.48 138.56,46.89 133.99,48.46 129.48,50.20 125.03,52.09 120.65,54.13 116.34,56.32 112.11,58.67 107.97,61.16 103.91,63.79 99.95,66.56 102.76,70.43 105.56,74.29 108.37,78.16 111.18,82.02 113.99,85.89 116.80,89.75 119.60,93.61 122.41,97.48 125.22,101.34 128.03,105.21 130.83,109.07 133.64,112.94 136.45,116.80 139.26,120.67 142.06,124.53 144.87,128.39 147.68,132.26 150.49,136.12 153.29,139.99 156.10,143.85 158.91,147.72 161.72,151.58 164.52,155.44 167.33,159.31 170.14,163.17 172.95,167.04 175.75,170.90 178.56,174.77 181.37,178.63 181.37,178.63 " />
  </g>
  <g
     id="g3572">
    <text
       sodipodi:linespacing="125%"
       id="text3042"
       y="258.15906"
       x="110.45718"
       style="font-style:normal;font-weight:bold;font-size:22.39999962px;line-height:125%;font-family:Sans;-inkscape-font-specification:'Sans Bold';letter-spacing:0px;word-spacing:0px;fill:#ffffff;fill-opacity:1;stroke:none"
       xml:space="preserve"><tspan
         y="258.15906"
         x="110.45718"
         id="tspan3044"
         sodipodi:role="line">R</tspan></text>
    <text
       xml:space="preserve"
       style="font-style:normal;font-weight:bold;font-size:28.79999924px;line-height:125%;font-family:Sans;-inkscape-font-specification:'Sans Bold';letter-spacing:0px;word-spacing:0px;fill:#ffffff;fill-opacity:1;stroke:none"
       x="224.95605"
       y="162.88435"
       id="text3058"
       sodipodi:linespacing="125%"><tspan
         style="font-size:22.39999962px"
         sodipodi:role="line"
         id="tspan3060"
         x="224.95605"
         y="162.88435">python</tspan></text>
    <text
       xml:space="preserve"
       style="font-style:normal;font-weight:bold;font-size:28.79999924px;line-height:125%;font-family:Sans;-inkscape-font-specification:'Sans Bold';letter-spacing:0px;word-spacing:0px;fill:#ffffff;fill-opacity:1;stroke:none"
       x="49.87714"
       y="118.36126"
       id="text3066"
       sodipodi:linespacing="125%"><tspan
         style="font-size:22.39999962px"
         sodipodi:role="line"
         id="tspan3068"
         x="49.87714"
         y="118.36126">bash</tspan></text>
    <text
       xml:space="preserve"
       style="font-style:normal;font-weight:bold;font-size:28.79999924px;line-height:125%;font-family:Sans;-inkscape-font-specification:'Sans Bold';letter-spacing:0px;word-spacing:0px;fill:#ffffff;fill-opacity:1;stroke:none"
       x="135.81116"
       y="72.684982"
       id="text3416"
       sodipodi:linespacing="125%"><tspan
         sodipodi:role="line"
         id="tspan3418"
         x="135.81116"
         y="72.684982"
         style="font-size:22.39999962px">JS</tspan></text>
  </g>
  <text
     xml:space="preserve"
     style="font-size:24px;font-style:normal;font-weight:bold;line-height:125%;letter-spacing:0px;word-spacing:0px;fill:#000000;fill-opacity:1;stroke:none;font-family:Sans;-inkscape-font-specification:Sans Bold"
     x="103.81886"
     y="262.58673"
     id="text3420"
     sodipodi:linespacing="125%"
     transform="scale(0.8,0.8)"><tspan
       sodipodi:role="line"
       id="tspan3424"
       x="103.81886"
       y="262.58673" /></text>
</svg>
